<svg width="31" height="28" viewBox="0 0 31 28" fill="none" xmlns="http://www.w3.org/2000/svg">
<path opacity="0.5" d="M20.2158 2.75152C19.9937 2.37586 19.6817 2.05869 19.3068 1.82731C18.9319 1.59593 18.5052 1.45728 18.0635 1.42327C17.6234 1.38622 17.1808 1.45554 16.7745 1.62517C16.3681 1.79479 16.0104 2.05953 15.7329 2.39616L7.48048 11.8046L1.36848 15.2592C0.74231 15.6155 0.28504 16.1997 0.0961438 16.8846C0.00096139 17.2242 -0.0238762 17.5791 0.0230946 17.9283C0.0700655 18.2775 0.187894 18.6139 0.369638 18.9178L2.50408 22.5472C2.8677 23.1607 3.46386 23.6088 4.16288 23.7939C4.39533 23.8563 4.63532 23.8876 4.87634 23.8871C5.35201 23.8859 5.81918 23.7634 6.23192 23.5317L6.58865 24.1143C7.25003 25.235 8.09117 26.2441 9.07982 27.1028L9.61492 27.5689C9.91186 27.8377 10.2988 27.991 10.7029 28C10.9948 28.0004 11.2817 27.9261 11.5353 27.7845L13.2892 26.7883C13.5173 26.6593 13.7108 26.479 13.8537 26.2623C13.9965 26.0455 14.0847 25.7986 14.1108 25.5418C14.137 25.2851 14.1004 25.0259 14.004 24.7858C13.9077 24.5457 13.7544 24.3314 13.5568 24.1609C12.6624 23.3827 11.8998 22.4703 11.2975 21.4578L10.9408 20.8752L12.3439 20.0829L24.5144 17.0477C24.9303 16.9528 25.3178 16.7637 25.6458 16.4956C25.9738 16.2275 26.2331 15.8879 26.403 15.5039C26.5729 15.12 26.6487 14.7024 26.6243 14.2846C26.5999 13.8668 26.4759 13.4604 26.2624 13.0979L20.2158 2.75152ZM4.47204 22.6695C4.27589 22.6182 4.09198 22.5296 3.93079 22.4086C3.76961 22.2877 3.63432 22.1368 3.53265 21.9646L1.39821 18.3352C1.24131 18.0694 1.1709 17.763 1.1964 17.457C1.2219 17.1509 1.34208 16.8598 1.5409 16.6225L3.2651 19.5353C3.34395 19.6697 3.47406 19.7679 3.62681 19.8084C3.77957 19.8488 3.94245 19.8281 4.07964 19.7508C4.21683 19.6736 4.31707 19.5461 4.35833 19.3964C4.39958 19.2467 4.37847 19.0871 4.29962 18.9527L2.51597 15.935L7.64101 13.0222L9.51384 16.1797L11.357 19.3023L9.85868 20.1353L6.20219 22.2035L5.67304 21.3005C5.5942 21.1661 5.46409 21.0678 5.31133 21.0274C5.15858 20.987 4.99569 21.0077 4.8585 21.0849C4.72132 21.1622 4.62107 21.2897 4.57981 21.4393C4.53856 21.589 4.55968 21.7486 4.63852 21.883L5.12011 22.6986C4.90452 22.7356 4.68327 22.7257 4.47204 22.6695ZM10.2927 22.0403C10.9507 23.1633 11.7923 24.1729 12.7839 25.0289C12.8398 25.0782 12.8829 25.1399 12.9098 25.2087C12.9367 25.2776 12.9465 25.3517 12.9385 25.4251C12.932 25.4982 12.9075 25.5688 12.8672 25.6307C12.8268 25.6926 12.7717 25.744 12.7066 25.7804L10.9527 26.7708C10.8671 26.8217 10.767 26.8441 10.6673 26.8347C10.5676 26.8252 10.4738 26.7844 10.3997 26.7184L9.87057 26.2523C8.97567 25.4784 8.21469 24.5675 7.61722 23.555L7.26049 22.9724L8.22367 22.4307L9.93597 21.4578L10.2927 22.0403ZM25.3349 15.0204C25.2396 15.2379 25.0928 15.4301 24.9067 15.581C24.7206 15.732 24.5006 15.8373 24.2647 15.8884L12.4331 18.842L8.59229 12.3231L16.6485 3.14184C16.806 2.95098 17.0086 2.80051 17.2387 2.70338C17.4688 2.60626 17.7196 2.5654 17.9694 2.58432C18.2192 2.60323 18.4606 2.68136 18.6727 2.81197C18.8849 2.94259 19.0614 3.12177 19.1872 3.33409L25.2576 13.6572C25.378 13.8628 25.4477 14.0931 25.4612 14.3298C25.4746 14.5665 25.4313 14.803 25.3349 15.0204ZM24.9722 6.68968C25.011 6.75643 25.063 6.815 25.125 6.86201C25.187 6.90901 25.258 6.94352 25.3337 6.96356C25.4094 6.98359 25.4884 6.98875 25.5661 6.97874C25.6439 6.96873 25.7189 6.94375 25.7867 6.90523L28.6525 5.27987C28.7896 5.20261 28.8899 5.07513 28.9312 4.92545C28.9724 4.77577 28.9513 4.61617 28.8724 4.48175C28.8334 4.41519 28.7814 4.35682 28.7193 4.30996C28.6572 4.26311 28.5864 4.22869 28.5107 4.20868C28.358 4.16826 28.1951 4.18895 28.0579 4.2662L25.216 5.87409C25.1434 5.91005 25.0792 5.9602 25.0272 6.02144C24.9753 6.08269 24.9367 6.15372 24.9138 6.23016C24.891 6.30659 24.8844 6.38681 24.8944 6.46585C24.9044 6.54488 24.9309 6.62106 24.9722 6.68968ZM23.7831 4.2895C23.8344 4.29523 23.8863 4.29523 23.9377 4.2895C24.0719 4.29401 24.2037 4.25385 24.3117 4.17557C24.4196 4.09729 24.4974 3.9855 24.5322 3.8584L25.3765 0.753317C25.3999 0.678565 25.4077 0.599967 25.3994 0.522203C25.3911 0.444439 25.367 0.369101 25.3284 0.300678C25.2897 0.232256 25.2375 0.172149 25.1747 0.123938C25.1118 0.0757272 25.0398 0.0403991 24.9627 0.0200591C24.8857 -0.000280887 24.8052 -0.00521654 24.7262 0.00554571C24.6472 0.016308 24.5712 0.0425477 24.5027 0.0827024C24.4342 0.122857 24.3747 0.176105 24.3277 0.239273C24.2807 0.30244 24.2471 0.374236 24.229 0.450382L23.3788 3.55547C23.3551 3.62966 23.3468 3.70773 23.3544 3.78511C23.362 3.86248 23.3854 3.93758 23.423 4.00598C23.4607 4.07439 23.512 4.13471 23.5738 4.1834C23.6356 4.2321 23.7068 4.26817 23.7831 4.2895ZM30.4777 9.45105L27.3088 8.61798C27.233 8.59809 27.154 8.59301 27.0763 8.60303C26.9986 8.61305 26.9236 8.63798 26.8557 8.67639C26.7878 8.71479 26.7283 8.76593 26.6805 8.82688C26.6328 8.88783 26.5978 8.95739 26.5775 9.0316C26.5572 9.10581 26.552 9.18321 26.5622 9.25938C26.5724 9.33555 26.5979 9.40901 26.6371 9.47554C26.6763 9.54208 26.7285 9.6004 26.7907 9.64718C26.8529 9.69396 26.9239 9.72827 26.9996 9.74816L30.1686 10.5754C30.2198 10.5835 30.272 10.5835 30.3232 10.5754C30.4808 10.5955 30.6402 10.5534 30.7662 10.4583C30.8922 10.3633 30.9745 10.2231 30.995 10.0686C31.0155 9.91406 30.9725 9.75791 30.8755 9.63445C30.7785 9.511 30.6354 9.43036 30.4777 9.41027V9.45105Z" fill="#231F20"/>
</svg>
