<svg width="24" height="24" viewBox="0 0 24 24" fill="none" xmlns="http://www.w3.org/2000/svg">
<path d="M15 12.9008C15 12.2375 14.4626 11.7008 13.8 11.7008H13.1394C13.0036 11.1869 12.5563 10.8008 12 10.8008C11.4169 10.8008 10.9537 11.2247 10.8454 11.7763C9.7896 12.0437 9 13.0483 9 14.2508C9 15.6571 10.0764 16.8008 11.4 16.8008L12.5449 16.7867C12.5567 16.7949 12.6 16.8488 12.6 16.9508C12.6 17.0433 12.5642 17.0961 12.59 17.1008H10.2C9.53736 17.1008 9 17.6375 9 18.3008C9 18.964 9.53736 19.5008 10.2 19.5008H10.8606C10.9964 20.0146 11.4437 20.4008 12 20.4008C12.5832 20.4008 13.0463 19.9768 13.1546 19.4252C14.2104 19.1577 15 18.1533 15 16.9508C15 15.5445 13.9236 14.4008 12.6 14.4008L11.4551 14.4148C11.4433 14.4067 11.4 14.3528 11.4 14.2508C11.4 14.1583 11.4358 14.1055 11.41 14.1008H13.8C14.4626 14.1008 15 13.564 15 12.9008Z" fill="#8E8E8E"/>
<path d="M19.2 7.20006H4.8C2.15328 7.20006 0 9.35274 0 12.0001V19.2001C0 21.8474 2.15328 24 4.8 24H19.2C21.8467 24 24 21.8474 24 19.2001V12.0001C24 9.35274 21.8467 7.20006 19.2 7.20006ZM21.6 19.2001C21.6 20.5231 20.5236 21.6 19.2 21.6H4.8C3.4764 21.6 2.4 20.5231 2.4 19.2001V12.0001C2.4 10.6771 3.4764 9.60005 4.8 9.60005H19.2C20.5236 9.60005 21.6 10.6771 21.6 12.0001V19.2001ZM10.4484 4.44846L12 2.89698L13.5516 4.44858C13.786 4.68282 14.0929 4.80006 14.4 4.80006C14.7071 4.80006 15.014 4.68282 15.2484 4.44846C15.7171 3.97974 15.7171 3.22038 15.2484 2.75154L12.8484 0.35154C12.3797 -0.11718 11.6203 -0.11718 11.1515 0.35154L8.75148 2.75154C8.28276 3.22026 8.28276 3.97962 8.75148 4.44846C9.2202 4.9173 9.97968 4.9173 10.4484 4.44846Z" fill="#8E8E8E"/>
</svg>
