<svg width="17" height="17" viewBox="0 0 17 17" fill="none" xmlns="http://www.w3.org/2000/svg">
<path d="M8.5 0C6.81886 0 5.17547 0.498516 3.77766 1.43251C2.37984 2.3665 1.29037 3.69402 0.647028 5.24719C0.00368291 6.80036 -0.164645 8.50943 0.163329 10.1583C0.491303 11.8071 1.30085 13.3217 2.4896 14.5104C3.67834 15.6992 5.1929 16.5087 6.84174 16.8367C8.49058 17.1646 10.1996 16.9963 11.7528 16.353C13.306 15.7096 14.6335 14.6202 15.5675 13.2223C16.5015 11.8245 17 10.1811 17 8.5C17 6.24566 16.1045 4.08365 14.5104 2.48959C12.9164 0.895533 10.7543 0 8.5 0ZM8.5 15.7857C7.05903 15.7857 5.65041 15.3584 4.45228 14.5579C3.25415 13.7573 2.32032 12.6194 1.76888 11.2881C1.21744 9.95683 1.07316 8.49192 1.35428 7.07863C1.6354 5.66534 2.3293 4.36715 3.34823 3.34822C4.36715 2.3293 5.66534 1.6354 7.07863 1.35428C8.49192 1.07316 9.95684 1.21744 11.2881 1.76888C12.6194 2.32032 13.7573 3.25414 14.5579 4.45227C15.3584 5.6504 15.7857 7.05902 15.7857 8.5C15.7857 10.4323 15.0181 12.2854 13.6518 13.6518C12.2854 15.0181 10.4323 15.7857 8.5 15.7857Z" fill="black"/>
<path d="M12.574 4.42569C12.5176 4.36878 12.4504 4.32361 12.3765 4.29279C12.3025 4.26196 12.2231 4.24609 12.143 4.24609C12.0628 4.24609 11.9835 4.26196 11.9095 4.29279C11.8355 4.32361 11.7683 4.36878 11.7119 4.42569L8.5001 7.64354L5.28832 4.42569C5.17399 4.31136 5.01893 4.24713 4.85725 4.24713C4.69556 4.24713 4.5405 4.31136 4.42617 4.42569C4.31185 4.54001 4.24762 4.69507 4.24762 4.85676C4.24762 5.01844 4.31185 5.1735 4.42617 5.28783L7.64403 8.49961L4.42617 11.7114C4.36927 11.7678 4.3241 11.835 4.29328 11.909C4.26245 11.983 4.24658 12.0623 4.24658 12.1425C4.24658 12.2226 4.26245 12.302 4.29328 12.376C4.3241 12.45 4.36927 12.5171 4.42617 12.5735C4.48262 12.6304 4.54977 12.6756 4.62375 12.7064C4.69774 12.7373 4.7771 12.7531 4.85725 12.7531C4.9374 12.7531 5.01675 12.7373 5.09074 12.7064C5.16472 12.6756 5.23188 12.6304 5.28832 12.5735L8.5001 9.35569L11.7119 12.5735C11.7683 12.6304 11.8355 12.6756 11.9095 12.7064C11.9835 12.7373 12.0628 12.7531 12.143 12.7531C12.2231 12.7531 12.3025 12.7373 12.3765 12.7064C12.4504 12.6756 12.5176 12.6304 12.574 12.5735C12.6309 12.5171 12.6761 12.45 12.7069 12.376C12.7378 12.302 12.7536 12.2226 12.7536 12.1425C12.7536 12.0623 12.7378 11.983 12.7069 11.909C12.6761 11.835 12.6309 11.7678 12.574 11.7114L9.35617 8.49961L12.574 5.28783C12.6309 5.23139 12.6761 5.16424 12.7069 5.09025C12.7378 5.01626 12.7536 4.93691 12.7536 4.85676C12.7536 4.77661 12.7378 4.69725 12.7069 4.62326C12.6761 4.54928 12.6309 4.48213 12.574 4.42569Z" fill="black"/>
</svg>
