<svg width="383" height="350" viewBox="0 0 383 350" fill="none" xmlns="http://www.w3.org/2000/svg">
<g clip-path="url(#clip0_1_9)">
<path d="M462.262 427.643C551.631 318.878 535.907 158.26 427.143 68.8916C318.378 -20.4768 157.76 -4.7532 68.3916 104.011C-20.9768 212.776 -5.25319 373.394 103.511 462.762C212.276 552.131 372.894 536.407 462.262 427.643Z" stroke="url(#paint0_linear_1_9)" stroke-width="20"/>
<g clip-path="url(#clip1_1_9)">
<path d="M405.187 386.374C468.103 309.803 457.033 196.727 380.463 133.812C303.892 70.8962 190.816 81.9657 127.901 158.536C64.9852 235.107 76.0547 348.183 152.625 411.098C229.196 474.014 342.272 462.944 405.187 386.374Z" stroke="url(#paint1_linear_1_9)" stroke-width="20"/>
</g>
</g>
<defs>
<linearGradient id="paint0_linear_1_9" x1="60.6646" y1="97.6621" x2="349.639" y2="335.104" gradientUnits="userSpaceOnUse">
<stop stop-color="#8489FC"/>
<stop offset="1" stop-color="white" stop-opacity="0"/>
</linearGradient>
<linearGradient id="paint1_linear_1_9" x1="120.175" y1="152.188" x2="326.843" y2="322.001" gradientUnits="userSpaceOnUse">
<stop stop-color="#8489FC"/>
<stop offset="1" stop-color="white" stop-opacity="0"/>
</linearGradient>
<clipPath id="clip0_1_9">
<rect width="383" height="350" fill="white"/>
</clipPath>
<clipPath id="clip1_1_9">
<rect width="306" height="267" fill="white" transform="translate(77 83)"/>
</clipPath>
</defs>
</svg>
