<svg width="21" height="21" viewBox="0 0 21 21" fill="none" xmlns="http://www.w3.org/2000/svg">
<path fill-rule="evenodd" clip-rule="evenodd" d="M15.1623 5.20451C15.3889 4.9438 15.7686 4.93059 16.0104 5.17501L20.8104 10.0279C20.9314 10.1503 21 10.3211 21 10.5C21 10.6789 20.9314 10.8497 20.8104 10.9721L16.0104 15.825C15.7686 16.0694 15.3889 16.0562 15.1623 15.7955C14.9356 15.5348 14.9479 15.1253 15.1896 14.8809L19.5227 10.5L15.1896 6.11911C14.9479 5.8747 14.9356 5.46522 15.1623 5.20451Z" fill="#232323" fill-opacity="0.5"/>
<path fill-rule="evenodd" clip-rule="evenodd" d="M7 10.5C7 10.2239 7.27252 10 7.6087 10H20.3913C20.7275 10 21 10.2239 21 10.5C21 10.7761 20.7275 11 20.3913 11H7.6087C7.27252 11 7 10.7761 7 10.5Z" fill="#232323" fill-opacity="0.5"/>
<path fill-rule="evenodd" clip-rule="evenodd" d="M1.42857 1.2C1.3528 1.2 1.28012 1.23161 1.22654 1.28787C1.17296 1.34413 1.14286 1.42044 1.14286 1.5V19.5C1.14286 19.5796 1.17296 19.6559 1.22654 19.7121C1.28012 19.7684 1.35279 19.8 1.42857 19.8H7.42857C7.74416 19.8 8 20.0686 8 20.4C8 20.7314 7.74416 21 7.42857 21H1.42857C1.04969 21 0.686329 20.842 0.418419 20.5607C0.15051 20.2794 0 19.8978 0 19.5V1.5C0 1.10217 0.15051 0.720644 0.418419 0.43934C0.686328 0.158036 1.04969 0 1.42857 0H7.42857C7.74416 0 8 0.268629 8 0.6C8 0.931371 7.74416 1.2 7.42857 1.2H1.42857Z" fill="#232323" fill-opacity="0.5"/>
</svg>
