<svg width="24" height="22" viewBox="0 0 24 22" fill="none" xmlns="http://www.w3.org/2000/svg">
<path d="M17.4165 0C21.552 0 23.9957 2.37435 23.9957 6.40543V6.45015H18.9141C16.5493 6.45431 14.6336 8.32217 14.6293 10.6279C14.6261 12.9388 16.544 14.815 18.9141 14.8181H24V15.1852C24 19.2163 21.5563 21.6 17.4208 21.6H6.58027C2.44373 21.6 0 19.2163 0 15.1852V6.40543C0 2.37435 2.44373 0 6.58027 0H17.4165ZM12.4597 4.64988H5.68747C5.184 4.65197 4.77547 5.0503 4.77332 5.54222C4.7712 6.03623 5.1808 6.43871 5.68747 6.44079H12.4683C12.9749 6.43871 13.3845 6.03623 13.3824 5.54118C13.3803 5.04718 12.9664 4.64781 12.4597 4.64988Z" fill="#8E8E8E"/>
<path opacity="0.4" d="M16.8449 11.1553C17.0959 12.2967 18.0966 13.0998 19.2392 13.0789H23.1391C23.6144 13.0789 24.0001 12.6852 24.0001 12.1986V9.16069C23.999 8.67509 23.6144 8.28034 23.1391 8.2793H19.1473C17.8477 8.28347 16.798 9.36224 16.8001 10.6916C16.8001 10.8472 16.8154 11.0028 16.8449 11.1553Z" fill="#8E8E8E"/>
<path d="M19.2 11.8805C19.8627 11.8805 20.4 11.3432 20.4 10.6805C20.4 10.0177 19.8627 9.48047 19.2 9.48047C18.5373 9.48047 18 10.0177 18 10.6805C18 11.3432 18.5373 11.8805 19.2 11.8805Z" fill="#8E8E8E"/>
</svg>
