<svg width="23" height="23" viewBox="0 0 23 23" fill="none" xmlns="http://www.w3.org/2000/svg">
<path d="M22.628 17.8867L14.6559 1.94612C14.3617 1.36104 13.9108 0.869251 13.3536 0.525611C12.7963 0.181971 12.1546 0 11.5 0C10.8454 0 10.2037 0.181971 9.64642 0.525611C9.08916 0.869251 8.63829 1.36104 8.34412 1.94612L0.371995 17.8867C0.102843 18.4261 -0.0239327 19.0255 0.00372321 19.6277C0.0313791 20.23 0.212547 20.8151 0.530001 21.3276C0.847455 21.84 1.29064 22.2627 1.81743 22.5554C2.34421 22.8481 2.93707 23.0012 3.53965 23H19.4603C20.0629 23.0012 20.6558 22.8481 21.1826 22.5554C21.7094 22.2627 22.1525 21.84 22.47 21.3276C22.7875 20.8151 22.9686 20.23 22.9963 19.6277C23.0239 19.0255 22.8972 18.4261 22.628 17.8867ZM12.3361 17.9457C12.1104 18.1609 11.8118 18.283 11.5 18.2873C11.3461 18.2854 11.1941 18.2534 11.0525 18.1931C10.908 18.137 10.7759 18.0529 10.6639 17.9457C10.5537 17.836 10.4662 17.7057 10.4065 17.5622C10.3468 17.4186 10.3161 17.2646 10.3161 17.1091C10.3161 16.9537 10.3468 16.7997 10.4065 16.6561C10.4662 16.5126 10.5537 16.3823 10.6639 16.2727C10.7759 16.1654 10.908 16.0813 11.0525 16.0252C11.2313 15.9504 11.4257 15.9209 11.6186 15.9392C11.8115 15.9576 11.9969 16.0233 12.1583 16.1305C12.3197 16.2377 12.4522 16.3831 12.544 16.5538C12.6359 16.7245 12.6841 16.9153 12.6846 17.1091C12.6847 17.2647 12.6539 17.4187 12.594 17.5623C12.5342 17.7059 12.4465 17.8362 12.3361 17.9457ZM12.6776 13.5746C12.6776 13.8871 12.5535 14.1868 12.3327 14.4077C12.1118 14.6287 11.8123 14.7528 11.5 14.7528C11.1877 14.7528 10.8882 14.6287 10.6673 14.4077C10.4465 14.1868 10.3224 13.8871 10.3224 13.5746V7.6838C10.3224 7.37133 10.4465 7.07166 10.6673 6.85071C10.8882 6.62976 11.1877 6.50563 11.5 6.50563C11.8123 6.50563 12.1118 6.62976 12.3327 6.85071C12.5535 7.07166 12.6776 7.37133 12.6776 7.6838V13.5746Z" fill="#8E8E8E"/>
</svg>
