<svg width="20" height="20" viewBox="0 0 20 20" fill="none" xmlns="http://www.w3.org/2000/svg">
<path d="M10 0C8.10742 0.000155744 6.25373 0.537336 4.65431 1.54913C3.05488 2.56092 1.77539 4.00578 0.964489 5.71584C0.153588 7.42591 -0.155432 9.33096 0.0733345 11.2097C0.302101 13.0884 1.05926 14.8636 2.25684 16.3291L0.293003 18.293C0.15315 18.4328 0.0579041 18.611 0.0193117 18.805C-0.0192807 18.9989 0.000513375 19.2 0.0761908 19.3827C0.151868 19.5654 0.28003 19.7216 0.444468 19.8315C0.608905 19.9414 0.802233 20 1 20H10C12.6522 20 15.1957 18.9464 17.0711 17.0711C18.9464 15.1957 20 12.6522 20 10C20 7.34784 18.9464 4.8043 17.0711 2.92893C15.1957 1.05357 12.6522 0 10 0ZM6 11C5.80222 11 5.60888 10.9414 5.44443 10.8315C5.27998 10.7216 5.15181 10.5654 5.07612 10.3827C5.00044 10.2 4.98063 9.99889 5.01922 9.80491C5.0578 9.61093 5.15304 9.43275 5.2929 9.29289C5.43275 9.15304 5.61093 9.0578 5.80491 9.01921C5.99889 8.98063 6.19996 9.00043 6.38269 9.07612C6.56541 9.15181 6.72159 9.27998 6.83147 9.44443C6.94135 9.60888 7 9.80222 7 10C7 10.2652 6.89465 10.5196 6.70711 10.7071C6.51957 10.8946 6.26522 11 6 11ZM10 11C9.80222 11 9.60888 10.9414 9.44443 10.8315C9.27998 10.7216 9.15181 10.5654 9.07612 10.3827C9.00044 10.2 8.98063 9.99889 9.01922 9.80491C9.0578 9.61093 9.15304 9.43275 9.2929 9.29289C9.43275 9.15304 9.61093 9.0578 9.80491 9.01921C9.99889 8.98063 10.2 9.00043 10.3827 9.07612C10.5654 9.15181 10.7216 9.27998 10.8315 9.44443C10.9414 9.60888 11 9.80222 11 10C11 10.2652 10.8946 10.5196 10.7071 10.7071C10.5196 10.8946 10.2652 11 10 11ZM14 11C13.8022 11 13.6089 10.9414 13.4444 10.8315C13.28 10.7216 13.1518 10.5654 13.0761 10.3827C13.0004 10.2 12.9806 9.99889 13.0192 9.80491C13.0578 9.61093 13.153 9.43275 13.2929 9.29289C13.4327 9.15304 13.6109 9.0578 13.8049 9.01921C13.9989 8.98063 14.2 9.00043 14.3827 9.07612C14.5654 9.15181 14.7216 9.27998 14.8315 9.44443C14.9414 9.60888 15 9.80222 15 10C15 10.2652 14.8946 10.5196 14.7071 10.7071C14.5196 10.8946 14.2652 11 14 11Z" fill="#B2B1FF"/>
</svg>
