<svg width="21" height="21" viewBox="0 0 21 21" fill="none" xmlns="http://www.w3.org/2000/svg">
<g clip-path="url(#clip0_1078_8756)">
<path d="M16.2865 0H4.71354C2.11033 0 0 2.11033 0 4.71354V16.2865C0 18.8897 2.11033 21 4.71354 21H16.2865C18.8897 21 21 18.8897 21 16.2865V4.71354C21 2.11033 18.8897 0 16.2865 0Z" fill="#0B86CA"/>
<path d="M5.81879 8.72926H8.00099V15.7705H5.81879V8.72926ZM6.93171 5.23047C7.18173 5.23047 7.42614 5.30452 7.63412 5.44328C7.8421 5.58203 8.00432 5.77928 8.10033 6.01012C8.19633 6.24097 8.22182 6.49508 8.17357 6.7404C8.12532 6.98572 8.0055 7.21125 7.82922 7.38854C7.65294 7.56583 7.4281 7.68695 7.18306 7.7366C6.93802 7.78626 6.68377 7.76223 6.45238 7.66755C6.22098 7.57287 6.02281 7.41177 5.88287 7.20459C5.74292 6.99741 5.66747 6.75343 5.66604 6.50342C5.66508 6.33659 5.69711 6.17123 5.76028 6.01683C5.82346 5.86243 5.91654 5.72204 6.03416 5.60374C6.15179 5.48544 6.29164 5.39156 6.44567 5.3275C6.59971 5.26344 6.76489 5.23047 6.93171 5.23047Z" fill="white"/>
<path d="M9.3979 8.72907H11.5001V9.68923C11.7105 9.33012 12.0145 9.03488 12.3796 8.83503C12.7447 8.63517 13.1573 8.53821 13.5732 8.55449C15.7554 8.55449 16.1991 10.0093 16.1991 11.9078V15.7703H14.0169V12.3661C14.0169 11.5514 14.0169 10.4966 12.8821 10.4966C11.7474 10.4966 11.5728 11.3841 11.5728 12.3006V15.7848H9.39062L9.3979 8.72907Z" fill="white"/>
</g>
<defs>
<clipPath id="clip0_1078_8756">
<rect width="21" height="21" fill="white"/>
</clipPath>
</defs>
</svg>
