<svg width="28" height="36" viewBox="0 0 28 36" fill="none" xmlns="http://www.w3.org/2000/svg">
<path d="M24.2963 36H3.65432C1.62963 36 0 34.3361 0 32.2689V3.73109C0 1.66387 1.62963 0 3.65432 0H20.6914L28 7.46219V32.2689C27.9506 34.3361 26.321 36 24.2963 36Z" fill="#D4E5A0"/>
<path d="M28 7H24.5C22.5608 7 21 5.43919 21 3.5V0L28 7Z" fill="#F59339"/>
<path d="M6 15H8.46307C9.91193 15 10.7813 16.0161 10.7813 17.4274C10.7813 19.0645 9.71875 19.9113 8.36648 19.9113H7.35227V22H6.0483L6 15ZM8.36648 18.5565C9.04261 18.5565 9.42898 18.1048 9.42898 17.4839C9.42898 16.8065 8.99432 16.4113 8.36648 16.4113H7.35227V18.5565H8.36648ZM11.6989 15H14.0653C15.9489 15 17.2528 16.5242 17.2528 18.5C17.2528 20.4758 15.9489 22 14.0653 22H11.6989V15ZM14.0653 20.6452C15.1278 20.6452 15.8523 19.7984 15.8523 18.5565C15.8523 17.3145 15.1278 16.4677 14.017 16.4677H13.0028V20.7016L14.0653 20.6452ZM18.4119 15H23V16.4113H19.7642V17.879H22.6136V19.2903H19.7642V22H18.4602L18.4119 15Z" fill="#E26B26"/>
</svg>
