<svg width="38" height="26" viewBox="0 0 38 26" fill="none" xmlns="http://www.w3.org/2000/svg">
<path fill-rule="evenodd" clip-rule="evenodd" d="M37.24 0.371436C37.4396 0.517766 37.6078 0.701093 37.7349 0.910949C37.862 1.1208 37.9456 1.35308 37.9809 1.59451C38.0162 1.83594 38.0025 2.0818 37.9406 2.31806C37.8786 2.55431 37.7697 2.77633 37.62 2.97144L26.22 17.8286C25.9286 18.2085 25.4993 18.4648 25.0205 18.545C24.5417 18.6251 24.0496 18.5229 23.6455 18.2594L13.7408 11.8059L3.42 25.2571C3.27029 25.4522 3.08274 25.6166 2.86804 25.7409C2.65334 25.8651 2.4157 25.9468 2.1687 25.9813C1.9217 26.0158 1.67016 26.0024 1.42846 25.9419C1.18675 25.8814 0.959609 25.7749 0.76 25.6286C0.560391 25.4822 0.392223 25.2989 0.265098 25.0891C0.137974 24.8792 0.0543823 24.6469 0.0190961 24.4055C-0.0161902 24.1641 -0.00248011 23.9182 0.0594439 23.682C0.121368 23.4457 0.230293 23.2237 0.38 23.0286L11.78 8.17143C12.0714 7.79153 12.5007 7.53516 12.9795 7.45503C13.4583 7.37489 13.9504 7.47708 14.3545 7.74058L24.2592 14.1941L34.58 0.742865C34.8823 0.348829 35.3325 0.0883292 35.8313 0.0186728C36.3301 -0.0509835 36.8369 0.0759092 37.24 0.371436Z" fill="#8489FC"/>
</svg>
