<svg width="45" height="41" viewBox="0 0 45 41" fill="none" xmlns="http://www.w3.org/2000/svg">
<path d="M29.3455 4.02902C29.0231 3.47893 28.5703 3.01451 28.026 2.67571C27.4818 2.3369 26.8624 2.13387 26.2212 2.08407C25.5824 2.02982 24.9399 2.13133 24.35 2.37971C23.7602 2.62809 23.241 3.01574 22.838 3.50866L10.8588 17.2853L1.98651 22.3439C1.07755 22.8656 0.413768 23.721 0.139564 24.7239C0.00139557 25.2212 -0.034659 25.7408 0.0335245 26.2521C0.101708 26.7634 0.27275 27.2561 0.536571 27.701L3.63495 33.0155C4.16279 33.9139 5.02818 34.57 6.04289 34.841C6.38031 34.9324 6.72869 34.9783 7.07856 34.9775C7.76905 34.9758 8.4472 34.7964 9.04633 34.4571L9.56417 35.3102C10.5242 36.9512 11.7452 38.4288 13.1804 39.6863L13.9571 40.3687C14.3882 40.7624 14.9498 40.9868 15.5365 41C15.9602 41.0005 16.3767 40.8917 16.7448 40.6844L19.2908 39.2257C19.6219 39.0368 19.9028 38.7728 20.1102 38.4555C20.3175 38.1381 20.4455 37.7765 20.4835 37.4005C20.5214 37.0246 20.4683 36.6451 20.3284 36.2935C20.1886 35.9418 19.966 35.6282 19.6792 35.3784C18.3809 34.239 17.2739 32.903 16.3996 31.4203L15.8818 30.5673L17.9186 29.4071L35.5854 24.9627C36.1892 24.8237 36.7517 24.5468 37.2278 24.1543C37.7039 23.7617 38.0803 23.2644 38.327 22.7022C38.5736 22.14 38.6836 21.5285 38.6482 20.9167C38.6127 20.3049 38.4328 19.7098 38.1228 19.1791L29.3455 4.02902ZM6.49168 33.1946C6.20694 33.1195 5.93996 32.9897 5.70599 32.8126C5.47202 32.6355 5.27563 32.4146 5.12804 32.1624L2.02966 26.848C1.8019 26.4588 1.6997 26.0101 1.73671 25.562C1.77372 25.1139 1.94818 24.6876 2.2368 24.34L4.73967 28.6053C4.85412 28.8021 5.04299 28.9459 5.26473 29.0051C5.48647 29.0643 5.72292 29.034 5.92206 28.9209C6.1212 28.8078 6.26672 28.6211 6.3266 28.4019C6.38649 28.1827 6.35584 27.949 6.24139 27.7522L3.65221 23.3334L11.0918 19.0682L13.8104 23.6917L16.4859 28.264L14.311 29.4839L9.00318 32.5122L8.23506 31.19C8.12061 30.9931 7.93174 30.8493 7.71 30.7901C7.48825 30.7309 7.25181 30.7612 7.05267 30.8744C6.85352 30.9875 6.708 31.1742 6.64812 31.3933C6.58823 31.6125 6.61888 31.8462 6.73333 32.043L7.43241 33.2373C7.11946 33.2914 6.7983 33.2769 6.49168 33.1946ZM14.941 32.2733C15.8962 33.9177 17.1178 35.3961 18.5572 36.6495C18.6384 36.7217 18.7011 36.812 18.7401 36.9128C18.7791 37.0137 18.7933 37.1222 18.7816 37.2295C18.7723 37.3367 18.7367 37.44 18.6781 37.5307C18.6195 37.6213 18.5395 37.6965 18.445 37.7499L15.899 39.2001C15.7748 39.2746 15.6295 39.3075 15.4848 39.2936C15.3401 39.2798 15.2038 39.22 15.0964 39.1233L14.3283 38.4409C13.0292 37.3076 11.9245 35.9738 11.0573 34.4913L10.5394 33.6382L11.9376 32.8449L14.4232 31.4203L14.941 32.2733ZM36.7764 21.9942C36.6381 22.3127 36.4251 22.5941 36.1549 22.8151C35.8848 23.0361 35.5653 23.1904 35.2229 23.2652L18.048 27.5901L12.4727 18.0445L24.1671 4.60056C24.3959 4.32108 24.6899 4.10074 25.0239 3.95853C25.358 3.81631 25.722 3.75648 26.0846 3.78418C26.4472 3.81188 26.7976 3.92628 27.1055 4.11753C27.4135 4.30879 27.6698 4.57116 27.8524 4.88206L36.6642 19.998C36.8391 20.2991 36.9403 20.6364 36.9597 20.9829C36.9792 21.3295 36.9164 21.6758 36.7764 21.9942ZM36.2499 9.7956C36.3063 9.89335 36.3817 9.97911 36.4718 10.0479C36.5618 10.1168 36.6648 10.1673 36.7747 10.1966C36.8846 10.226 36.9993 10.2335 37.1121 10.2189C37.225 10.2042 37.3338 10.1676 37.4323 10.1112L41.5923 7.73123C41.7914 7.61811 41.9369 7.43143 41.9968 7.21227C42.0567 6.9931 42.0261 6.75939 41.9116 6.56256C41.8549 6.4651 41.7794 6.37963 41.6893 6.31102C41.5992 6.24241 41.4963 6.19202 41.3866 6.16271C41.1648 6.10352 40.9284 6.13381 40.7292 6.24693L36.6038 8.60134C36.4985 8.654 36.4053 8.72744 36.3298 8.81711C36.2544 8.90679 36.1984 9.01081 36.1652 9.12273C36.132 9.23466 36.1225 9.35211 36.137 9.46785C36.1516 9.58358 36.19 9.69513 36.2499 9.7956ZM34.5238 6.28106C34.5984 6.28944 34.6737 6.28944 34.7482 6.28106C34.9431 6.28765 35.1344 6.22885 35.2912 6.11422C35.4479 5.9996 35.5607 5.8359 35.6113 5.6498L36.8368 1.10307C36.8708 0.993614 36.8821 0.878522 36.8701 0.764654C36.8581 0.650785 36.823 0.540469 36.767 0.440279C36.7109 0.340089 36.635 0.252075 36.5439 0.181481C36.4527 0.110886 36.348 0.0591559 36.2362 0.0293723C36.1244 -0.000411298 36.0076 -0.0076385 35.8929 0.0081205C35.7781 0.0238795 35.6678 0.062302 35.5684 0.1211C35.469 0.179898 35.3826 0.257868 35.3144 0.350363C35.2461 0.442859 35.1974 0.547989 35.1711 0.659487L33.937 5.20622C33.9026 5.31485 33.8906 5.42918 33.9016 5.54248C33.9126 5.65577 33.9465 5.76574 34.0012 5.8659C34.0559 5.96607 34.1303 6.0544 34.22 6.1257C34.3098 6.197 34.4131 6.24982 34.5238 6.28106ZM44.2419 13.839L39.6418 12.6192C39.5318 12.5901 39.4172 12.5826 39.3043 12.5973C39.1915 12.612 39.0827 12.6485 38.9841 12.7047C38.8855 12.7609 38.7991 12.8358 38.7298 12.9251C38.6605 13.0143 38.6097 13.1162 38.5802 13.2248C38.5507 13.3335 38.5432 13.4468 38.5581 13.5584C38.5729 13.6699 38.6098 13.7775 38.6667 13.8749C38.7236 13.9723 38.7994 14.0577 38.8897 14.1262C38.98 14.1947 39.083 14.245 39.193 14.2741L43.7931 15.4854C43.8674 15.4972 43.9432 15.4972 44.0175 15.4854C44.2464 15.5148 44.4777 15.4532 44.6606 15.314C44.8435 15.1748 44.963 14.9695 44.9927 14.7433C45.0225 14.517 44.9601 14.2884 44.8193 14.1076C44.6785 13.9268 44.4708 13.8087 44.2419 13.7793V13.839Z" fill="#8489FC"/>
</svg>
