<svg width="36" height="36" viewBox="0 0 36 36" fill="none" xmlns="http://www.w3.org/2000/svg">
<path d="M22.5 19.3492C22.5 18.3544 21.694 17.5492 20.7 17.5492H19.7091C19.5053 16.7785 18.8345 16.1992 18 16.1992C17.1254 16.1992 16.4306 16.8352 16.268 17.6624C14.6844 18.0637 13.5 19.5704 13.5 21.3742C13.5 23.4836 15.1146 25.1992 17.1 25.1992L18.8174 25.1782C18.835 25.1904 18.9 25.2712 18.9 25.4242C18.9 25.563 18.8464 25.6422 18.8851 25.6492H15.3C14.306 25.6492 13.5 26.4544 13.5 27.4492C13.5 28.4441 14.306 29.2492 15.3 29.2492H16.2909C16.4947 30.02 17.1655 30.5992 18 30.5992C18.8748 30.5992 19.5694 29.9633 19.732 29.1358C21.3156 28.7346 22.5 27.228 22.5 25.4242C22.5 23.3148 20.8854 21.5992 18.9 21.5992L17.1826 21.6203C17.165 21.608 17.1 21.5272 17.1 21.3742C17.1 21.2354 17.1536 21.1562 17.1149 21.1492H20.7C21.694 21.1492 22.5 20.3441 22.5 19.3492Z" fill="#8489FC"/>
<path d="M28.8 10.8001H7.2C3.22992 10.8001 0 14.0291 0 18.0001V28.8001C0 32.7711 3.22992 36.0001 7.2 36.0001H28.8C32.7701 36.0001 36 32.7711 36 28.8001V18.0001C36 14.0291 32.7701 10.8001 28.8 10.8001ZM32.4 28.8001C32.4 30.7846 30.7854 32.4001 28.8 32.4001H7.2C5.2146 32.4001 3.6 30.7846 3.6 28.8001V18.0001C3.6 16.0156 5.2146 14.4001 7.2 14.4001H28.8C30.7854 14.4001 32.4 16.0156 32.4 18.0001V28.8001ZM15.6726 6.67269L18 4.34547L20.3274 6.67287C20.6789 7.02423 21.1394 7.20009 21.6 7.20009C22.0606 7.20009 22.521 7.02423 22.8726 6.67269C23.5757 5.96961 23.5757 4.83057 22.8726 4.12731L19.2726 0.52731C18.5695 -0.17577 17.4305 -0.17577 16.7272 0.52731L13.1272 4.12731C12.4241 4.83039 12.4241 5.96943 13.1272 6.67269C13.8303 7.37595 14.9695 7.37595 15.6726 6.67269Z" fill="#8489FC"/>
</svg>
