<svg width="16" height="10" viewBox="0 0 16 10" fill="none" xmlns="http://www.w3.org/2000/svg">
<path d="M7.11111 10H8.88889C9.37778 10 9.77778 9.625 9.77778 9.16667C9.77778 8.70833 9.37778 8.33333 8.88889 8.33333H7.11111C6.62222 8.33333 6.22222 8.70833 6.22222 9.16667C6.22222 9.625 6.62222 10 7.11111 10ZM0 0.833333C0 1.29167 0.4 1.66667 0.888889 1.66667H15.1111C15.6 1.66667 16 1.29167 16 0.833333C16 0.375 15.6 0 15.1111 0H0.888889C0.4 0 0 0.375 0 0.833333ZM3.55556 5.83333H12.4444C12.9333 5.83333 13.3333 5.45833 13.3333 5C13.3333 4.54167 12.9333 4.16667 12.4444 4.16667H3.55556C3.06667 4.16667 2.66667 4.54167 2.66667 5C2.66667 5.45833 3.06667 5.83333 3.55556 5.83333Z" fill="#FFE9E9"/>
</svg>
