<svg width="42" height="37" viewBox="0 0 42 37" fill="none" xmlns="http://www.w3.org/2000/svg">
<path d="M14.3889 16.4444C16.0151 16.4444 17.6048 15.9622 18.9569 15.0588C20.309 14.1553 21.3629 12.8711 21.9852 11.3687C22.6076 9.86632 22.7704 8.2131 22.4531 6.61815C22.1359 5.02319 21.3528 3.55813 20.2029 2.40824C19.053 1.25834 17.5879 0.475248 15.993 0.157991C14.398 -0.159265 12.7448 0.00356253 11.2424 0.625883C9.73997 1.2482 8.45583 2.30207 7.55236 3.6542C6.64889 5.00634 6.16667 6.59602 6.16667 8.22223C6.16667 10.4029 7.03293 12.4942 8.5749 14.0362C10.1169 15.5782 12.2082 16.4444 14.3889 16.4444ZM30.8333 20.5556C32.053 20.5556 33.2452 20.1939 34.2593 19.5163C35.2735 18.8387 36.0639 17.8756 36.5306 16.7488C36.9973 15.622 37.1195 14.3821 36.8815 13.1858C36.6436 11.9896 36.0563 10.8908 35.1938 10.0284C34.3314 9.16598 33.2326 8.57866 32.0364 8.34072C30.8402 8.10277 29.6003 8.22489 28.4735 8.69164C27.3466 9.15838 26.3835 9.94877 25.7059 10.9629C25.0283 11.977 24.6667 13.1692 24.6667 14.3889C24.6667 16.0244 25.3164 17.5929 26.4728 18.7494C27.6293 19.9059 29.1978 20.5556 30.8333 20.5556ZM39.0556 34.9444C39.6007 34.9444 40.1236 34.7279 40.5091 34.3424C40.8945 33.9569 41.1111 33.4341 41.1111 32.8889C41.1095 30.9678 40.5694 29.0855 39.5522 27.4558C38.535 25.8261 37.0814 24.5141 35.3563 23.6686C33.6312 22.8232 31.7036 22.4782 29.7924 22.6728C27.8811 22.8674 26.0627 23.5937 24.5433 24.7694C22.5299 22.764 19.9678 21.3996 17.18 20.8483C14.3922 20.2971 11.5035 20.5837 8.87841 21.672C6.25328 22.7603 4.00918 24.6016 2.42913 26.9636C0.849087 29.3256 0.00384429 32.1027 0 34.9444C0 35.4896 0.216567 36.0125 0.602058 36.3979C0.98755 36.7834 1.51039 37 2.05556 37H26.7222C27.2674 37 27.7902 36.7834 28.1757 36.3979C28.5612 36.0125 28.7778 35.4896 28.7778 34.9444" fill="#8489FC"/>
</svg>
