<svg width="35" height="35" viewBox="0 0 35 35" fill="none" xmlns="http://www.w3.org/2000/svg">
<path fill-rule="evenodd" clip-rule="evenodd" d="M17.5 0.000117028C7.82797 0.000117028 0 7.8359 0 17.4825C0 27.1642 7.82797 35 17.5 35C27.172 35 35 27.1642 35 17.4825C35 7.80086 27.172 -0.0349179 17.5 0.000117028ZM23.6687 6.55165C23.9527 6.55422 24.2243 6.66836 24.425 6.86946C24.6257 7.07056 24.7394 7.34253 24.7417 7.62678C24.7436 7.76836 24.7172 7.9089 24.6641 8.04012C24.6109 8.17134 24.5321 8.29059 24.4322 8.39087C24.3323 8.49114 24.2135 8.57042 24.0825 8.62402C23.9516 8.67763 23.8113 8.70448 23.6698 8.70301H23.5386V12.1879C23.5386 13.5236 22.8878 14.7958 21.6508 15.2852C20.9672 15.5458 20.0867 15.7089 19.4031 15.9366C19.0783 16.068 18.7852 16.1972 18.5894 16.3603C18.3947 16.5235 18.2973 16.6855 18.2973 16.9461V17.8252C18.2973 18.0858 18.3947 18.25 18.5894 18.4132C18.7852 18.5763 19.0783 18.7383 19.4031 18.8369C20.0867 19.0646 20.9344 19.2277 21.6508 19.4883C22.9195 19.9777 23.5386 21.2794 23.5386 22.5834V26.331H23.6698C24.255 26.331 24.7417 26.7865 24.7417 27.3733C24.7394 27.6574 24.6258 27.9292 24.4254 28.1303C24.2249 28.3314 23.9536 28.4456 23.6698 28.4485H11.2984C10.7111 28.4485 10.2572 27.9591 10.2572 27.3733C10.2572 26.7865 10.7111 26.331 11.2973 26.331V22.5834C11.2973 21.2477 12.1778 19.9777 13.4148 19.4883C14.0984 19.2277 14.9439 19.0963 15.6275 18.8686C15.9852 18.7383 16.2783 18.608 16.4741 18.4449C16.6688 18.2818 16.7661 18.1197 16.7661 17.8592V16.9778C16.7661 16.7172 16.6688 16.5552 16.473 16.3921C16.2237 16.1937 15.9357 16.0497 15.6275 15.9695C14.9111 15.7407 14.0656 15.6093 13.4148 15.3487C12.2095 14.8604 11.2973 13.6232 11.2973 12.2864V8.73476C10.7111 8.73476 10.2572 8.24537 10.2572 7.65963C10.2572 7.07279 10.7111 6.5834 11.2973 6.5834L23.6687 6.55165ZM12.2106 12.0904C12.1122 12.0904 12.0466 12.189 12.1122 12.3193C12.1122 12.9707 12.4075 13.4908 12.8625 13.8499C13.3175 14.2079 13.9016 14.4367 14.4878 14.6644C15.1069 14.8604 15.7248 15.0224 16.2466 15.2184C16.7672 15.4144 17.1588 15.6432 17.3862 15.9366C17.4519 16.0352 17.6466 16.0001 17.7111 15.9027C17.8752 15.6093 18.2328 15.3815 18.7534 15.1867C19.2752 14.9907 19.8931 14.8276 20.5122 14.6327C21.0984 14.4049 21.7153 14.1761 22.1714 13.8181C22.6275 13.459 22.9513 12.939 22.9513 12.2864C22.9513 12.189 22.855 12.0894 22.7577 12.0894H12.2106V12.0904ZM17.4825 16.4567C17.3523 16.4567 17.2878 16.5235 17.3206 16.6209C17.3206 16.7194 17.3862 16.784 17.4825 16.784C17.5809 16.784 17.6466 16.7183 17.6466 16.6209C17.6466 16.5235 17.5809 16.4567 17.4825 16.4567ZM17.4825 17.9238C17.3523 17.9238 17.2878 17.9884 17.3206 18.0858C17.3206 18.1843 17.3862 18.2489 17.4825 18.2489C17.5809 18.2489 17.6466 18.1832 17.6466 18.0858C17.6466 17.9873 17.5809 17.9238 17.4825 17.9238ZM17.4825 19.358C17.3523 19.358 17.2878 19.4565 17.3206 19.5211C17.3206 19.6186 17.3862 19.6832 17.4825 19.6832C17.5809 19.6832 17.6466 19.6186 17.6466 19.5211C17.6466 19.4226 17.5809 19.358 17.4825 19.358ZM17.4825 20.8229C17.3523 20.8229 17.2878 20.8886 17.3206 20.986C17.3206 21.0835 17.3862 21.1503 17.4825 21.1503C17.5809 21.1503 17.6466 21.0517 17.6466 20.986C17.6466 20.9203 17.5809 20.8229 17.4825 20.8229ZM17.4508 21.7677C17.3523 21.8006 17.3523 21.8334 17.3195 21.8663C17.1248 22.1925 16.7344 22.486 16.2148 22.6808C15.6931 22.8768 15.0741 23.0717 14.4561 23.2677C13.8698 23.4954 13.2836 23.7231 12.8286 24.0822C12.3725 24.4403 12.0487 24.9614 12.0487 25.6128C12.0487 25.7114 12.145 25.8099 12.2423 25.8099H22.7248C22.8233 25.8099 22.9195 25.7114 22.9195 25.6128C22.9195 24.9614 22.5936 24.4414 22.1375 24.0822C21.6825 23.7231 21.0962 23.4954 20.4783 23.2677C19.8592 23.0389 19.2402 22.8768 18.7195 22.6491C18.2317 22.4214 17.8423 22.1925 17.6477 21.8663C17.6148 21.8006 17.5492 21.7677 17.4508 21.7677Z" fill="#70FF00"/>
</svg>
