<svg width="33" height="33" viewBox="0 0 33 33" fill="none" xmlns="http://www.w3.org/2000/svg">
<path d="M32.4663 25.6636L21.028 2.79226C20.6059 1.9528 19.959 1.24719 19.1595 0.754137C18.3599 0.261089 17.4392 0 16.5 0C15.5608 0 14.6401 0.261089 13.8405 0.754137C13.041 1.24719 12.3941 1.9528 11.972 2.79226L0.533733 25.6636C0.147557 26.4375 -0.0343382 27.2974 0.005342 28.1615C0.0450222 29.0256 0.304959 29.8652 0.760436 30.6004C1.21591 31.3357 1.85179 31.9421 2.60761 32.3621C3.36343 32.7821 4.21406 33.0017 5.07863 33H27.9214C28.7859 33.0017 29.6366 32.7821 30.3924 32.3621C31.1482 31.9421 31.7841 31.3357 32.2396 30.6004C32.695 29.8652 32.955 29.0256 32.9947 28.1615C33.0343 27.2974 32.8524 26.4375 32.4663 25.6636ZM17.6996 25.7481C17.3758 26.057 16.9473 26.2321 16.5 26.2383C16.2792 26.2356 16.0611 26.1896 15.858 26.1031C15.6506 26.0226 15.4611 25.902 15.3004 25.7481C15.1423 25.5908 15.0167 25.4038 14.9311 25.1979C14.8455 24.9919 14.8014 24.771 14.8014 24.5479C14.8014 24.3248 14.8455 24.1039 14.9311 23.898C15.0167 23.692 15.1423 23.505 15.3004 23.3477C15.4611 23.1938 15.6506 23.0732 15.858 22.9927C16.1144 22.8854 16.3934 22.843 16.6702 22.8693C16.9469 22.8957 17.2129 22.9899 17.4445 23.1437C17.6761 23.2976 17.8662 23.5062 17.998 23.7511C18.1297 23.9961 18.199 24.2698 18.1997 24.5479C18.1997 24.7711 18.1556 24.9921 18.0697 25.1981C17.9839 25.4041 17.8581 25.591 17.6996 25.7481ZM18.1896 19.4767C18.1896 19.925 18.0115 20.355 17.6947 20.672C17.3778 20.989 16.9481 21.1671 16.5 21.1671C16.0519 21.1671 15.6222 20.989 15.3053 20.672C14.9885 20.355 14.8104 19.925 14.8104 19.4767V11.0246C14.8104 10.5763 14.9885 10.1463 15.3053 9.82928C15.6222 9.51226 16.0519 9.33417 16.5 9.33417C16.9481 9.33417 17.3778 9.51226 17.6947 9.82928C18.0115 10.1463 18.1896 10.5763 18.1896 11.0246V19.4767Z" fill="#F90000"/>
</svg>
