<svg width="6" height="11" viewBox="0 0 6 11" fill="none" xmlns="http://www.w3.org/2000/svg">
<path d="M4 4.95H2C1.73478 4.95 1.48043 4.83411 1.29289 4.62782C1.10536 4.42153 1 4.14174 1 3.85C1 3.55826 1.10536 3.27847 1.29289 3.07218C1.48043 2.86589 1.73478 2.75 2 2.75H4.5C4.63261 2.75 4.75979 2.80795 4.85355 2.91109C4.94732 3.01424 5 3.15413 5 3.3C5 3.44587 5.05268 3.58576 5.14645 3.68891C5.24021 3.79205 5.36739 3.85 5.5 3.85C5.63261 3.85 5.75979 3.79205 5.85355 3.68891C5.94732 3.58576 6 3.44587 6 3.3C6 2.86239 5.84196 2.44271 5.56066 2.13327C5.27936 1.82384 4.89782 1.65 4.5 1.65H3.5V0.55C3.5 0.404131 3.44732 0.264236 3.35355 0.161091C3.25979 0.0579462 3.13261 0 3 0C2.86739 0 2.74021 0.0579462 2.64645 0.161091C2.55268 0.264236 2.5 0.404131 2.5 0.55V1.65H2C1.46957 1.65 0.960859 1.88179 0.585786 2.29436C0.210714 2.70694 0 3.26652 0 3.85C0 4.43348 0.210714 4.99306 0.585786 5.40564C0.960859 5.81822 1.46957 6.05 2 6.05H4C4.26522 6.05 4.51957 6.16589 4.70711 6.37218C4.89464 6.57847 5 6.85826 5 7.15C5 7.44174 4.89464 7.72153 4.70711 7.92782C4.51957 8.13411 4.26522 8.25 4 8.25H1.5C1.36739 8.25 1.24021 8.19205 1.14645 8.08891C1.05268 7.98576 1 7.84587 1 7.7C1 7.55413 0.947321 7.41424 0.853553 7.31109C0.759785 7.20795 0.632608 7.15 0.5 7.15C0.367392 7.15 0.240215 7.20795 0.146447 7.31109C0.0526785 7.41424 0 7.55413 0 7.7C0 8.13761 0.158035 8.55729 0.43934 8.86673C0.720644 9.17616 1.10218 9.35 1.5 9.35H2.5V10.45C2.5 10.5959 2.55268 10.7358 2.64645 10.8389C2.74021 10.9421 2.86739 11 3 11C3.13261 11 3.25979 10.9421 3.35355 10.8389C3.44732 10.7358 3.5 10.5959 3.5 10.45V9.35H4C4.53043 9.35 5.03914 9.11821 5.41421 8.70564C5.78929 8.29305 6 7.73348 6 7.15C6 6.56652 5.78929 6.00695 5.41421 5.59437C5.03914 5.18179 4.53043 4.95 4 4.95Z" fill="white"/>
</svg>
