<svg width="10" height="10" viewBox="0 0 10 10" fill="none" xmlns="http://www.w3.org/2000/svg">
<path fill-rule="evenodd" clip-rule="evenodd" d="M3.9585 8.64703C3.9585 8.31551 3.8268 7.99757 3.59238 7.76315C3.35796 7.52873 3.04002 7.39703 2.7085 7.39703V6.98047C3.62896 6.98047 4.37521 7.72656 4.37521 8.64703H3.9585ZM6.04193 8.64703C6.04193 8.31551 6.17363 7.99757 6.40805 7.76315C6.64247 7.52873 6.96041 7.39703 7.29193 7.39703V6.98047C6.37147 6.98047 5.62522 7.72656 5.62522 8.64703H6.04193Z" fill="white"/>
<path fill-rule="evenodd" clip-rule="evenodd" d="M2.54484 1.14453H7.45516C7.61891 1.14453 7.75219 1.14453 7.86109 1.15187C7.97328 1.15969 8.07469 1.17578 8.17125 1.21594C8.40095 1.31109 8.58344 1.49358 8.67859 1.72328C8.71859 1.81984 8.73484 1.92109 8.74266 2.03344C8.75 2.14219 8.75 2.27563 8.75 2.43938V2.60281C8.75 2.65807 8.72805 2.71107 8.68897 2.75014C8.6499 2.78922 8.5969 2.81117 8.54164 2.81117C8.48638 2.81117 8.43338 2.78922 8.39431 2.75014C8.35523 2.71107 8.33328 2.65807 8.33328 2.60281V2.44656C8.33328 2.27391 8.33328 2.15469 8.32687 2.06172C8.32062 1.97078 8.30922 1.92016 8.29375 1.88266C8.26758 1.81946 8.22921 1.76205 8.18085 1.71368C8.13249 1.66532 8.07507 1.62695 8.01188 1.60078C7.97438 1.58531 7.92375 1.57391 7.83266 1.56766C7.73969 1.56141 7.62063 1.56109 7.44797 1.56109H2.55203C2.37937 1.56109 2.26031 1.56125 2.16734 1.56766C2.07625 1.57391 2.02562 1.58531 1.98812 1.60078C1.92493 1.62695 1.86751 1.66532 1.81915 1.71368C1.77079 1.76205 1.73242 1.81946 1.70625 1.88266C1.69078 1.92016 1.67938 1.97078 1.67313 2.06172C1.66688 2.15469 1.66672 2.27391 1.66672 2.44656V2.60281C1.66672 2.65807 1.64477 2.71107 1.60569 2.75014C1.56662 2.78922 1.51362 2.81117 1.45836 2.81117C1.4031 2.81117 1.3501 2.78922 1.31103 2.75014C1.27195 2.71107 1.25 2.65807 1.25 2.60281V2.43938C1.25 2.27563 1.25 2.14219 1.25734 2.03344C1.26516 1.92109 1.28141 1.81984 1.32141 1.72328C1.41656 1.49358 1.59905 1.31109 1.82875 1.21594C1.92531 1.17578 2.02656 1.15969 2.13891 1.15187C2.24781 1.14453 2.38109 1.14453 2.54484 1.14453Z" fill="white"/>
<path fill-rule="evenodd" clip-rule="evenodd" d="M2.7085 1.97656H7.29193V8.01828C7.29193 8.18404 7.22609 8.34301 7.10888 8.46022C6.99167 8.57743 6.83269 8.64328 6.66693 8.64328H3.3335C3.16774 8.64328 3.00876 8.57743 2.89155 8.46022C2.77434 8.34301 2.7085 8.18404 2.7085 8.01828V1.97656ZM3.12521 2.39328V8.01828C3.12521 8.13328 3.2185 8.22656 3.3335 8.22656H6.66693C6.78193 8.22656 6.87522 8.13328 6.87522 8.01828V2.39328H3.12521Z" fill="white"/>
<path fill-rule="evenodd" clip-rule="evenodd" d="M2.0835 2.185C2.0835 2.06984 2.17678 1.97656 2.29193 1.97656H7.7085C7.76376 1.97656 7.81675 1.99851 7.85583 2.03759C7.8949 2.07666 7.91686 2.12966 7.91686 2.18492C7.91686 2.24018 7.8949 2.29318 7.85583 2.33225C7.81675 2.37133 7.76376 2.39328 7.7085 2.39328H2.29193C2.26457 2.3933 2.23747 2.38793 2.21218 2.37747C2.18689 2.36701 2.16391 2.35168 2.14456 2.33233C2.1252 2.31299 2.10984 2.29002 2.09937 2.26474C2.08889 2.23946 2.0835 2.21237 2.0835 2.185Z" fill="white"/>
<path fill-rule="evenodd" clip-rule="evenodd" d="M3.95807 2.39453C3.95807 2.67081 4.06782 2.93578 4.26318 3.13114C4.45854 3.3265 4.7235 3.43625 4.99979 3.43625C5.27607 3.43625 5.54103 3.3265 5.73639 3.13114C5.93175 2.93578 6.0415 2.67081 6.0415 2.39453H6.45807C6.45807 2.58604 6.42035 2.77566 6.34706 2.95259C6.27378 3.12952 6.16636 3.29028 6.03095 3.42569C5.89553 3.56111 5.73477 3.66852 5.55785 3.74181C5.38092 3.81509 5.19129 3.85281 4.99979 3.85281C4.80828 3.85281 4.61865 3.81509 4.44173 3.74181C4.2648 3.66852 4.10404 3.56111 3.96862 3.42569C3.83321 3.29028 3.72579 3.12952 3.65251 2.95259C3.57922 2.77566 3.5415 2.58604 3.5415 2.39453H3.95807Z" fill="white"/>
</svg>
