<svg width="21" height="21" viewBox="0 0 21 21" fill="none" xmlns="http://www.w3.org/2000/svg">
<path d="M21 0.952153V7.79242C21 8.04494 20.8997 8.28713 20.7211 8.46569C20.5426 8.64425 20.3004 8.74457 20.0478 8.74457C19.7953 8.74457 19.5531 8.64425 19.3746 8.46569C19.196 8.28713 19.0957 8.04494 19.0957 7.79242V3.25827L1.63702 20.7093C1.54919 20.8003 1.44413 20.8728 1.32796 20.9227C1.21179 20.9726 1.08685 20.9989 0.960426 21C0.834 21.0011 0.708621 20.977 0.591605 20.9291C0.474589 20.8812 0.36828 20.8105 0.27888 20.7211C0.18948 20.6317 0.118779 20.5254 0.0709042 20.4084C0.0230291 20.2914 -0.00106266 20.166 3.59492e-05 20.0396C0.00113456 19.9131 0.0274009 19.7882 0.0773023 19.672C0.127204 19.5559 0.199741 19.4508 0.290682 19.363L17.7417 1.90431H13.2076C12.9551 1.90431 12.7129 1.80399 12.5343 1.62543C12.3557 1.44686 12.2554 1.20468 12.2554 0.952153C12.2554 0.699626 12.3557 0.457442 12.5343 0.278879C12.7129 0.100316 12.9551 3.43038e-09 13.2076 3.43038e-09H20.0478C20.1729 -1.0748e-05 20.2966 0.0252513 20.4116 0.074268C20.6442 0.170888 20.8291 0.355772 20.9257 0.58843C20.9748 0.703427 21 0.827146 21 0.952153ZM0.0583559 4.40085C0.0572263 3.54053 0.31126 2.6992 0.788326 1.98328C1.26539 1.26735 1.94406 0.708979 2.73849 0.378793C3.53293 0.0486071 4.40743 -0.038564 5.25141 0.128306C6.09539 0.295175 6.87093 0.70859 7.47993 1.31626C8.08893 1.92393 8.50404 2.69856 8.67276 3.54217C8.84148 4.38578 8.75622 5.26048 8.42778 6.05563C8.09933 6.85079 7.54245 7.53067 6.82757 8.00931C6.11269 8.48794 5.27192 8.74382 4.4116 8.74457C3.25854 8.74508 2.15242 8.2879 1.3362 7.47346C0.51997 6.65902 0.0603743 5.55391 0.0583559 4.40085ZM1.96266 4.40085C1.96341 4.88413 2.10736 5.35634 2.37633 5.75785C2.64529 6.15937 3.0272 6.47218 3.47384 6.65677C3.92047 6.84136 4.41179 6.88946 4.88574 6.795C5.35969 6.70053 5.79502 6.46773 6.13675 6.126C6.47848 5.78428 6.71128 5.34895 6.80575 4.87499C6.90021 4.40104 6.85211 3.90972 6.66752 3.46309C6.48292 3.01646 6.17012 2.63454 5.7686 2.36558C5.36709 2.09661 4.89487 1.95267 4.4116 1.95191C4.08993 1.95166 3.77137 2.01484 3.47413 2.13782C3.1769 2.2608 2.90683 2.44118 2.67938 2.66863C2.45193 2.89609 2.27155 3.16615 2.14857 3.46339C2.02558 3.76062 1.96241 4.07918 1.96266 4.40085ZM20.9524 16.5884C20.9535 17.4487 20.6995 18.29 20.2224 19.006C19.7454 19.7219 19.0667 20.2803 18.2723 20.6105C17.4778 20.9406 16.6033 21.0278 15.7593 20.8609C14.9154 20.6941 14.1398 20.2807 13.5308 19.673C12.9218 19.0653 12.5067 18.2907 12.338 17.4471C12.1693 16.6035 12.2545 15.7288 12.583 14.9336C12.9114 14.1385 13.4683 13.4586 14.1832 12.9799C14.8981 12.5013 15.7388 12.2454 16.5992 12.2447C17.7522 12.2442 18.8583 12.7014 19.6746 13.5158C20.4908 14.3302 20.9504 15.4353 20.9524 16.5884ZM19.0481 16.5884C19.0473 16.1051 18.9034 15.6329 18.6344 15.2314C18.3655 14.8299 17.9835 14.5171 17.5369 14.3325C17.0903 14.1479 16.599 14.0998 16.125 14.1943C15.6511 14.2887 15.2157 14.5215 14.874 14.8632C14.5323 15.205 14.2995 15.6403 14.205 16.1143C14.1105 16.5882 14.1586 17.0795 14.3432 17.5262C14.5278 17.9728 14.8406 18.3547 15.2421 18.6237C15.6437 18.8926 16.1159 19.0366 16.5992 19.0373C16.9208 19.0376 17.2394 18.9744 17.5366 18.8514C17.8338 18.7285 18.1039 18.5481 18.3314 18.3206C18.5588 18.0932 18.7392 17.8231 18.8622 17.5259C18.9852 17.2286 19.0483 16.9101 19.0481 16.5884Z" fill="#232323"/>
</svg>
