<svg width="23" height="27" viewBox="0 0 23 27" fill="none" xmlns="http://www.w3.org/2000/svg">
<path d="M8.76427 24.0333C9.36415 24.7862 10.2451 25.2735 11.2121 25.3873C12.1791 25.5011 13.1524 25.232 13.9167 24.6396C14.1518 24.4643 14.3633 24.2606 14.5462 24.0333M1.49025 15.5451V15.2819C1.52885 14.5035 1.77834 13.7493 2.21299 13.097C2.93647 12.3134 3.43173 11.3532 3.64681 10.3172C3.64681 9.51638 3.64681 8.70417 3.71675 7.9034C4.07812 4.04824 7.88999 1.38281 11.6552 1.38281H11.7485C15.5137 1.38281 19.3256 4.04824 19.6986 7.9034C19.7686 8.70417 19.6986 9.51638 19.7569 10.3172C19.9749 11.3556 20.4696 12.3188 21.1907 13.1084C21.6286 13.7549 21.8785 14.5064 21.9135 15.2819V15.5336C21.9395 16.5795 21.5793 17.5993 20.8993 18.405C20.0007 19.347 18.7814 19.9331 17.4721 20.0523C13.6328 20.4641 9.75924 20.4641 5.91994 20.0523C4.61213 19.928 3.39455 19.3427 2.49276 18.405C1.82328 17.5987 1.46792 16.5849 1.49025 15.5451Z" stroke="#200E32" stroke-width="1.5" stroke-linecap="round" stroke-linejoin="round"/>
</svg>
