<svg width="31" height="34" viewBox="0 0 31 34" fill="none" xmlns="http://www.w3.org/2000/svg">
<path d="M15.5 27.8182C15.8066 27.8182 16.1062 27.7275 16.3611 27.5577C16.616 27.3879 16.8147 27.1465 16.932 26.8641C17.0493 26.5818 17.08 26.271 17.0202 25.9712C16.9604 25.6714 16.8128 25.3961 16.596 25.1799C16.3792 24.9638 16.1031 24.8166 15.8024 24.757C15.5017 24.6973 15.1901 24.7279 14.9068 24.8449C14.6236 24.9619 14.3815 25.16 14.2112 25.4141C14.0409 25.6683 13.95 25.9671 13.95 26.2727C13.95 26.6826 14.1133 27.0757 14.404 27.3655C14.6947 27.6554 15.0889 27.8182 15.5 27.8182ZM23.25 27.8182C23.5566 27.8182 23.8562 27.7275 24.1111 27.5577C24.366 27.3879 24.5647 27.1465 24.682 26.8641C24.7993 26.5818 24.83 26.271 24.7702 25.9712C24.7104 25.6714 24.5628 25.3961 24.346 25.1799C24.1292 24.9638 23.8531 24.8166 23.5524 24.757C23.2517 24.6973 22.9401 24.7279 22.6568 24.8449C22.3736 24.9619 22.1315 25.16 21.9612 25.4141C21.7909 25.6683 21.7 25.9671 21.7 26.2727C21.7 26.6826 21.8633 27.0757 22.154 27.3655C22.4447 27.6554 22.8389 27.8182 23.25 27.8182ZM23.25 21.6364C23.5566 21.6364 23.8562 21.5457 24.1111 21.3759C24.366 21.2061 24.5647 20.9647 24.682 20.6823C24.7993 20.3999 24.83 20.0892 24.7702 19.7894C24.7104 19.4896 24.5628 19.2142 24.346 18.9981C24.1292 18.782 23.8531 18.6348 23.5524 18.5751C23.2517 18.5155 22.9401 18.5461 22.6568 18.6631C22.3736 18.7801 22.1315 18.9782 21.9612 19.2323C21.7909 19.4864 21.7 19.7852 21.7 20.0909C21.7 20.5008 21.8633 20.8939 22.154 21.1837C22.4447 21.4735 22.8389 21.6364 23.25 21.6364ZM15.5 21.6364C15.8066 21.6364 16.1062 21.5457 16.3611 21.3759C16.616 21.2061 16.8147 20.9647 16.932 20.6823C17.0493 20.3999 17.08 20.0892 17.0202 19.7894C16.9604 19.4896 16.8128 19.2142 16.596 18.9981C16.3792 18.782 16.1031 18.6348 15.8024 18.5751C15.5017 18.5155 15.1901 18.5461 14.9068 18.6631C14.6236 18.7801 14.3815 18.9782 14.2112 19.2323C14.0409 19.4864 13.95 19.7852 13.95 20.0909C13.95 20.5008 14.1133 20.8939 14.404 21.1837C14.6947 21.4735 15.0889 21.6364 15.5 21.6364ZM26.35 3.09091H24.8V1.54545C24.8 1.13557 24.6367 0.742482 24.346 0.452653C24.0553 0.162824 23.6611 0 23.25 0C22.8389 0 22.4447 0.162824 22.154 0.452653C21.8633 0.742482 21.7 1.13557 21.7 1.54545V3.09091H9.3V1.54545C9.3 1.13557 9.1367 0.742482 8.84601 0.452653C8.55533 0.162824 8.16109 0 7.75 0C7.33891 0 6.94467 0.162824 6.65398 0.452653C6.3633 0.742482 6.2 1.13557 6.2 1.54545V3.09091H4.65C3.41674 3.09091 2.234 3.57938 1.36195 4.44887C0.489909 5.31836 0 6.49763 0 7.72727V29.3636C0 30.5933 0.489909 31.7726 1.36195 32.642C2.234 33.5115 3.41674 34 4.65 34H26.35C27.5833 34 28.766 33.5115 29.638 32.642C30.5101 31.7726 31 30.5933 31 29.3636V7.72727C31 6.49763 30.5101 5.31836 29.638 4.44887C28.766 3.57938 27.5833 3.09091 26.35 3.09091ZM27.9 29.3636C27.9 29.7735 27.7367 30.1666 27.446 30.4564C27.1553 30.7463 26.7611 30.9091 26.35 30.9091H4.65C4.23891 30.9091 3.84467 30.7463 3.55398 30.4564C3.2633 30.1666 3.1 29.7735 3.1 29.3636V15.4545H27.9V29.3636ZM27.9 12.3636H3.1V7.72727C3.1 7.31739 3.2633 6.9243 3.55398 6.63447C3.84467 6.34464 4.23891 6.18182 4.65 6.18182H6.2V7.72727C6.2 8.13715 6.3633 8.53024 6.65398 8.82007C6.94467 9.1099 7.33891 9.27273 7.75 9.27273C8.16109 9.27273 8.55533 9.1099 8.84601 8.82007C9.1367 8.53024 9.3 8.13715 9.3 7.72727V6.18182H21.7V7.72727C21.7 8.13715 21.8633 8.53024 22.154 8.82007C22.4447 9.1099 22.8389 9.27273 23.25 9.27273C23.6611 9.27273 24.0553 9.1099 24.346 8.82007C24.6367 8.53024 24.8 8.13715 24.8 7.72727V6.18182H26.35C26.7611 6.18182 27.1553 6.34464 27.446 6.63447C27.7367 6.9243 27.9 7.31739 27.9 7.72727V12.3636ZM7.75 21.6364C8.05656 21.6364 8.35624 21.5457 8.61113 21.3759C8.86603 21.2061 9.0647 20.9647 9.18201 20.6823C9.29933 20.3999 9.33002 20.0892 9.27022 19.7894C9.21041 19.4896 9.06279 19.2142 8.84601 18.9981C8.62924 18.782 8.35306 18.6348 8.05239 18.5751C7.75172 18.5155 7.44007 18.5461 7.15684 18.6631C6.87362 18.7801 6.63154 18.9782 6.46122 19.2323C6.29091 19.4864 6.2 19.7852 6.2 20.0909C6.2 20.5008 6.3633 20.8939 6.65398 21.1837C6.94467 21.4735 7.33891 21.6364 7.75 21.6364ZM7.75 27.8182C8.05656 27.8182 8.35624 27.7275 8.61113 27.5577C8.86603 27.3879 9.0647 27.1465 9.18201 26.8641C9.29933 26.5818 9.33002 26.271 9.27022 25.9712C9.21041 25.6714 9.06279 25.3961 8.84601 25.1799C8.62924 24.9638 8.35306 24.8166 8.05239 24.757C7.75172 24.6973 7.44007 24.7279 7.15684 24.8449C6.87362 24.9619 6.63154 25.16 6.46122 25.4141C6.29091 25.6683 6.2 25.9671 6.2 26.2727C6.2 26.6826 6.3633 27.0757 6.65398 27.3655C6.94467 27.6554 7.33891 27.8182 7.75 27.8182Z" fill="black"/>
</svg>
