<svg width="9" height="10" viewBox="0 0 9 10" fill="none" xmlns="http://www.w3.org/2000/svg">
<path fill-rule="evenodd" clip-rule="evenodd" d="M0 2.5C0 2.22386 0.201472 2 0.45 2H8.55C8.79853 2 9 2.22386 9 2.5C9 2.77614 8.79853 3 8.55 3H0.45C0.201472 3 0 2.77614 0 2.5Z" fill="white"/>
<path fill-rule="evenodd" clip-rule="evenodd" d="M3.625 0.909091C3.50897 0.909091 3.39769 0.95698 3.31564 1.04222C3.23359 1.12747 3.1875 1.24308 3.1875 1.36364V1.81818H5.8125V1.36364C5.8125 1.24308 5.76641 1.12747 5.68436 1.04222C5.60231 0.95698 5.49103 0.909091 5.375 0.909091H3.625ZM6.6875 1.81818V1.36364C6.6875 1.00198 6.54922 0.655131 6.30308 0.3994C6.05694 0.143668 5.7231 0 5.375 0H3.625C3.2769 0 2.94306 0.143668 2.69692 0.3994C2.45078 0.655131 2.3125 1.00198 2.3125 1.36364V1.81818H1.4375C1.19588 1.81818 1 2.02169 1 2.27273V8.63636C1 8.99802 1.13828 9.34487 1.38442 9.6006C1.63056 9.85633 1.9644 10 2.3125 10H6.6875C7.0356 10 7.36944 9.85633 7.61558 9.6006C7.86172 9.34487 8 8.99802 8 8.63636V2.27273C8 2.02169 7.80412 1.81818 7.5625 1.81818H6.6875ZM1.875 2.72727V8.63636C1.875 8.75692 1.92109 8.87253 2.00314 8.95778C2.08519 9.04302 2.19647 9.09091 2.3125 9.09091H6.6875C6.80353 9.09091 6.91481 9.04302 6.99686 8.95778C7.07891 8.87253 7.125 8.75692 7.125 8.63636V2.72727H1.875Z" fill="white"/>
</svg>
