<svg width="11" height="11" viewBox="0 0 11 11" fill="none" xmlns="http://www.w3.org/2000/svg">
<path d="M9.39583 5.49643C9.39583 4.73026 9.18815 4.02834 8.77279 3.39066L3.37305 8.76574C4.02713 9.18927 4.73611 9.40104 5.5 9.40104C6.02995 9.40104 6.53483 9.29753 7.01465 9.09053C7.49447 8.88352 7.90864 8.60632 8.25716 8.25892C8.60569 7.91153 8.8826 7.49632 9.08789 7.0133C9.29319 6.53028 9.39583 6.02466 9.39583 5.49643ZM2.24154 7.63076L7.64844 2.24854C7.00391 1.81549 6.28776 1.59896 5.5 1.59896C4.7934 1.59896 4.14171 1.77266 3.54492 2.12005C2.94813 2.46745 2.47548 2.94095 2.12695 3.54056C1.77843 4.14017 1.60417 4.79213 1.60417 5.49643C1.60417 6.26736 1.81662 6.9788 2.24154 7.63076ZM11 5.49643C11 6.24356 10.8544 6.95739 10.5632 7.6379C10.2719 8.31841 9.88162 8.90374 9.39225 9.3939C8.90289 9.88406 8.31803 10.2743 7.6377 10.5646C6.95736 10.8549 6.24479 11 5.5 11C4.75521 11 4.04264 10.8549 3.3623 10.5646C2.68197 10.2743 2.09711 9.88406 1.60775 9.3939C1.11838 8.90374 0.728082 8.31841 0.436849 7.6379C0.145616 6.95739 0 6.24356 0 5.49643C0 4.7493 0.145616 4.03666 0.436849 3.35853C0.728082 2.6804 1.11838 2.09626 1.60775 1.6061C2.09711 1.11594 2.68197 0.725719 3.3623 0.435432C4.04264 0.145144 4.75521 0 5.5 0C6.24479 0 6.95736 0.145144 7.6377 0.435432C8.31803 0.725719 8.90289 1.11594 9.39225 1.6061C9.88162 2.09626 10.2719 2.6804 10.5632 3.35853C10.8544 4.03666 11 4.7493 11 5.49643Z" fill="#767E42"/>
</svg>
