<svg width="11" height="12" viewBox="0 0 11 12" fill="none" xmlns="http://www.w3.org/2000/svg">
<path d="M9.39583 5.99643C9.39583 5.23026 9.18815 4.52834 8.77279 3.89066L3.37305 9.26574C4.02713 9.68927 4.73611 9.90104 5.5 9.90104C6.02995 9.90104 6.53483 9.79753 7.01465 9.59053C7.49447 9.38352 7.90864 9.10632 8.25716 8.75892C8.60569 8.41153 8.8826 7.99632 9.08789 7.5133C9.29319 7.03028 9.39583 6.52466 9.39583 5.99643ZM2.24154 8.13076L7.64844 2.74854C7.00391 2.31549 6.28776 2.09896 5.5 2.09896C4.7934 2.09896 4.14171 2.27266 3.54492 2.62005C2.94813 2.96745 2.47548 3.44095 2.12695 4.04056C1.77843 4.64017 1.60417 5.29213 1.60417 5.99643C1.60417 6.76736 1.81662 7.4788 2.24154 8.13076ZM11 5.99643C11 6.74356 10.8544 7.45739 10.5632 8.1379C10.2719 8.81841 9.88162 9.40374 9.39225 9.8939C8.90289 10.3841 8.31803 10.7743 7.6377 11.0646C6.95736 11.3549 6.24479 11.5 5.5 11.5C4.75521 11.5 4.04264 11.3549 3.3623 11.0646C2.68197 10.7743 2.09711 10.3841 1.60775 9.8939C1.11838 9.40374 0.728082 8.81841 0.436849 8.1379C0.145616 7.45739 0 6.74356 0 5.99643C0 5.2493 0.145616 4.53666 0.436849 3.85853C0.728082 3.1804 1.11838 2.59626 1.60775 2.1061C2.09711 1.61594 2.68197 1.22572 3.3623 0.935432C4.04264 0.645144 4.75521 0.5 5.5 0.5C6.24479 0.5 6.95736 0.645144 7.6377 0.935432C8.31803 1.22572 8.90289 1.61594 9.39225 2.1061C9.88162 2.59626 10.2719 3.1804 10.5632 3.85853C10.8544 4.53666 11 5.2493 11 5.99643Z" fill="#4C5800"/>
</svg>
