<svg width="26" height="26" viewBox="0 0 26 26" fill="none" xmlns="http://www.w3.org/2000/svg">
<path d="M25.245 0.523125C25.1594 0.316955 24.9955 0.15312 24.7894 0.0675C24.6879 0.0242655 24.579 0.00133311 24.4688 0H21.0938C20.87 0 20.6554 0.0888948 20.4971 0.247129C20.3389 0.405362 20.25 0.619974 20.25 0.84375C20.25 1.06753 20.3389 1.28214 20.4971 1.44037C20.6554 1.59861 20.87 1.6875 21.0938 1.6875H22.4353L21.2878 2.835L17.4994 7.38281L13.0359 5.15531C12.8768 5.07528 12.6963 5.04768 12.5205 5.07648C12.3447 5.10528 12.1825 5.18899 12.0572 5.31563L7.50937 9.90562L3.80531 7.71188C3.67121 7.62806 3.51626 7.58362 3.35812 7.58362C3.19999 7.58362 3.04504 7.62806 2.91094 7.71188L0.379688 9.39937C0.215965 9.53125 0.107373 9.7195 0.075178 9.92725C0.0429831 10.135 0.0895047 10.3473 0.205632 10.5225C0.321759 10.6978 0.499126 10.8234 0.702996 10.8747C0.906866 10.926 1.12255 10.8994 1.30781 10.8L3.375 9.43313L7.18875 11.6944C7.3199 11.7695 7.46795 11.8101 7.61906 11.8125C7.7307 11.812 7.84113 11.7894 7.94396 11.746C8.04679 11.7025 8.13998 11.6391 8.21812 11.5594L12.825 6.93563L17.3391 9.18844C17.5092 9.27487 17.7036 9.30108 17.8906 9.26276C18.0776 9.22445 18.246 9.12389 18.3684 8.9775L22.5366 3.97406L23.625 2.87719V4.21875C23.625 4.44253 23.7139 4.65714 23.8721 4.81537C24.0304 4.97361 24.245 5.0625 24.4688 5.0625C24.6925 5.0625 24.9071 4.97361 25.0654 4.81537C25.2236 4.65714 25.3125 4.44253 25.3125 4.21875V0.84375C25.3112 0.733491 25.2882 0.624563 25.245 0.523125ZM5.90625 16.875H0.84375C0.619974 16.875 0.405362 16.9639 0.247129 17.1221C0.0888948 17.2804 0 17.495 0 17.7188V20.25H6.75V17.7188C6.75 17.495 6.66111 17.2804 6.50287 17.1221C6.34464 16.9639 6.13003 16.875 5.90625 16.875ZM0 24.4688C0 24.6925 0.0888948 24.9071 0.247129 25.0654C0.405362 25.2236 0.619974 25.3125 0.84375 25.3125H5.90625C6.13003 25.3125 6.34464 25.2236 6.50287 25.0654C6.66111 24.9071 6.75 24.6925 6.75 24.4688V21.9375H0V24.4688ZM15.1875 13.5H10.125C9.90122 13.5 9.68661 13.5889 9.52838 13.7471C9.37014 13.9054 9.28125 14.12 9.28125 14.3438V16.875H16.0312V14.3438C16.0312 14.12 15.9424 13.9054 15.7841 13.7471C15.6259 13.5889 15.4113 13.5 15.1875 13.5ZM9.28125 24.4688C9.28125 24.6925 9.37014 24.9071 9.52838 25.0654C9.68661 25.2236 9.90122 25.3125 10.125 25.3125H15.1875C15.4113 25.3125 15.6259 25.2236 15.7841 25.0654C15.9424 24.9071 16.0312 24.6925 16.0312 24.4688V21.9375H9.28125V24.4688Z" fill="#222222"/>
<path d="M16.0312 18.5625H9.28125V20.25H16.0312V18.5625Z" fill="#222222"/>
<path d="M25.3125 18.5625H18.5625V20.25H25.3125V18.5625Z" fill="#222222"/>
<path d="M25.3125 15.1875H18.5625V16.875H25.3125V15.1875Z" fill="#222222"/>
<path d="M18.5625 24.4688C18.5625 24.6925 18.6514 24.9071 18.8096 25.0654C18.9679 25.2236 19.1825 25.3125 19.4062 25.3125H24.4688C24.6925 25.3125 24.9071 25.2236 25.0654 25.0654C25.2236 24.9071 25.3125 24.6925 25.3125 24.4688V21.9375H18.5625V24.4688ZM24.4688 10.125H19.4062C19.1825 10.125 18.9679 10.2139 18.8096 10.3721C18.6514 10.5304 18.5625 10.745 18.5625 10.9688V13.5H25.3125V10.9688C25.3125 10.745 25.2236 10.5304 25.0654 10.3721C24.9071 10.2139 24.6925 10.125 24.4688 10.125Z" fill="#222222"/>
</svg>
