<svg width="17" height="26" viewBox="0 0 17 26" fill="none" xmlns="http://www.w3.org/2000/svg">
<path d="M11.3076 3.09199C11.3172 3.51327 11.2424 3.93221 11.0878 4.32421C10.9332 4.71621 10.7019 5.07338 10.4073 5.37473C10.1128 5.67608 9.76099 5.91556 9.37262 6.07908C8.98426 6.24261 8.56713 6.32691 8.14574 6.32701C7.72435 6.32712 7.30719 6.24303 6.91874 6.0797C6.53029 5.91636 6.17839 5.67707 5.8837 5.37586C5.58901 5.07465 5.35746 4.71761 5.20265 4.32568C5.04785 3.93376 4.9729 3.51485 4.98222 3.09357C5.0005 2.267 5.34163 1.48044 5.9326 0.902254C6.52356 0.324068 7.3174 0.000206842 8.14416 9.90443e-08C8.97093 -0.000206644 9.76492 0.323257 10.3562 0.901148C10.9474 1.47904 11.289 2.26543 11.3076 3.09199Z" fill="#8489FC"/>
<path d="M15.7204 11.5073L11.6078 7.34727C11.2671 7.00108 10.8609 6.72626 10.4128 6.53886C9.96463 6.35147 9.48367 6.25526 8.99795 6.25586H7.30389C6.27891 6.25586 5.35042 6.67345 4.67976 7.34727L0.567202 11.5073C0.415788 11.5968 0.286817 11.7197 0.190131 11.8666C0.093444 12.0135 0.031597 12.1806 0.00930908 12.355C-0.0129788 12.5295 0.0048813 12.7067 0.0615269 12.8732C0.118173 13.0397 0.212106 13.1911 0.33616 13.3158C0.460214 13.4405 0.61111 13.5351 0.777331 13.5926C0.943553 13.6501 1.12071 13.6688 1.29528 13.6474C1.46985 13.626 1.63722 13.565 1.78462 13.4691C1.93202 13.3731 2.05555 13.2447 2.14579 13.0938L4.98029 10.2577V25.2369H7.35292V17.3281H8.93468V25.2369H11.3073V10.2577L14.0754 13.1049C14.1743 13.2346 14.2996 13.342 14.443 13.4198C14.5864 13.4976 14.7446 13.5442 14.9073 13.5564C15.0701 13.5686 15.2335 13.5462 15.3869 13.4906C15.5403 13.4351 15.6802 13.3476 15.7974 13.2341C15.9146 13.1205 16.0063 12.9834 16.0666 12.8318C16.127 12.6802 16.1545 12.5175 16.1473 12.3545C16.1402 12.1915 16.0986 12.0319 16.0253 11.8861C15.952 11.7403 15.8486 11.6118 15.722 11.5089L15.7204 11.5073Z" fill="#8489FC"/>
</svg>
