<svg width="20" height="20" viewBox="0 0 20 20" fill="none" xmlns="http://www.w3.org/2000/svg">
<path d="M19.2159 15.1818L12.4459 1.65182C12.1961 1.15522 11.8132 0.737798 11.34 0.446125C10.8668 0.154453 10.3218 0 9.7659 0C9.21001 0 8.66505 0.154453 8.19182 0.446125C7.7186 0.737798 7.33572 1.15522 7.0859 1.65182L0.315902 15.1818C0.0873349 15.6396 -0.0203239 16.1483 0.00316179 16.6595C0.0266474 17.1707 0.180497 17.6674 0.450082 18.1023C0.719667 18.5372 1.09603 18.896 1.54337 19.1445C1.99072 19.3929 2.49419 19.5228 3.0059 19.5218H16.5259C17.0376 19.5228 17.5411 19.3929 17.9884 19.1445C18.4358 18.896 18.8121 18.5372 19.0817 18.1023C19.3513 17.6674 19.5052 17.1707 19.5286 16.6595C19.5521 16.1483 19.4445 15.6396 19.2159 15.1818ZM10.4759 15.2318C10.2843 15.4145 10.0307 15.5181 9.7659 15.5218C9.63523 15.5202 9.50614 15.493 9.3859 15.4418C9.26316 15.3942 9.15102 15.3228 9.0559 15.2318C8.96229 15.1388 8.88801 15.0282 8.83731 14.9063C8.78662 14.7845 8.76052 14.6538 8.76052 14.5218C8.76052 14.3898 8.78662 14.2592 8.83731 14.1373C8.88801 14.0155 8.96229 13.9048 9.0559 13.8118C9.151 13.7208 9.26315 13.6494 9.3859 13.6018C9.53769 13.5383 9.70281 13.5132 9.86662 13.5288C10.0304 13.5444 10.1878 13.6002 10.3249 13.6912C10.462 13.7822 10.5745 13.9056 10.6525 14.0505C10.7305 14.1954 10.7715 14.3573 10.7719 14.5218C10.7719 14.6539 10.7458 14.7846 10.695 14.9064C10.6442 15.0283 10.5697 15.1389 10.4759 15.2318ZM10.7659 11.5218C10.7659 11.787 10.6605 12.0414 10.473 12.2289C10.2855 12.4165 10.0311 12.5218 9.7659 12.5218C9.50068 12.5218 9.24633 12.4165 9.05879 12.2289C8.87126 12.0414 8.7659 11.787 8.7659 11.5218V6.52182C8.7659 6.2566 8.87126 6.00225 9.05879 5.81471C9.24633 5.62717 9.50068 5.52182 9.7659 5.52182C10.0311 5.52182 10.2855 5.62717 10.473 5.81471C10.6605 6.00225 10.7659 6.2566 10.7659 6.52182V11.5218Z" fill="#232323"/>
</svg>
