<svg width="17" height="16" viewBox="0 0 17 16" fill="none" xmlns="http://www.w3.org/2000/svg">
<path d="M10.5371 1.21634C10.3324 0.846962 10.036 0.539837 9.67824 0.326191C9.32043 0.112545 8.91391 0 8.5 0C8.08609 0 7.67956 0.112545 7.32176 0.326191C6.96396 0.539837 6.66764 0.846962 6.46294 1.21634L0.293664 12.5018C0.0977619 12.856 -0.003514 13.257 9.30926e-05 13.6643C0.00370019 14.0716 0.112062 14.4706 0.314205 14.821C0.519317 15.1826 0.813857 15.482 1.16798 15.6891C1.52211 15.8961 1.92324 16.0033 2.33073 15.9999H14.6693C15.0768 16.0033 15.4779 15.8961 15.832 15.6891C16.1861 15.482 16.4807 15.1826 16.6858 14.821C16.8879 14.4706 16.9963 14.0716 16.9999 13.6643C17.0035 13.257 16.9022 12.856 16.7063 12.5018L10.5371 1.21634ZM8.5 13.0909C8.35991 13.0909 8.22297 13.0483 8.10649 12.9683C7.99001 12.8884 7.89923 12.7749 7.84562 12.642C7.79201 12.5091 7.77798 12.3629 7.80531 12.2218C7.83264 12.0807 7.9001 11.9511 7.99916 11.8494C8.09822 11.7477 8.22442 11.6784 8.36182 11.6504C8.49921 11.6223 8.64163 11.6367 8.77105 11.6918C8.90048 11.7468 9.0111 11.84 9.08893 11.9596C9.16676 12.0792 9.2083 12.2198 9.2083 12.3637C9.2083 12.5565 9.13367 12.7415 9.00084 12.8779C8.86801 13.0143 8.68785 13.0909 8.5 13.0909ZM9.2083 9.45465C9.2083 9.64753 9.13367 9.83251 9.00084 9.96889C8.86801 10.1053 8.68785 10.1819 8.5 10.1819C8.31215 10.1819 8.13199 10.1053 7.99916 9.96889C7.86633 9.83251 7.7917 9.64753 7.7917 9.45465V5.09114C7.7917 4.89826 7.86633 4.71328 7.99916 4.57689C8.13199 4.44051 8.31215 4.36388 8.5 4.36388C8.68785 4.36388 8.86801 4.44051 9.00084 4.57689C9.13367 4.71328 9.2083 4.89826 9.2083 5.09114V9.45465Z" fill="#FF0000"/>
</svg>
