<svg width="25" height="28" viewBox="0 0 25 28" fill="none" xmlns="http://www.w3.org/2000/svg">
<path d="M20.1667 8.66667C20.1667 6.63334 19.3589 4.68329 17.9212 3.24551C16.4834 1.80774 14.5333 1 12.5 1C10.4667 1 8.51663 1.80774 7.07885 3.24551C5.64107 4.68329 4.83333 6.63334 4.83333 8.66667C4.83333 17.6111 1 20.1667 1 20.1667H24C24 20.1667 20.1667 17.6111 20.1667 8.66667Z" stroke="#17A1FA" stroke-width="2" stroke-linecap="round" stroke-linejoin="round"/>
<path d="M14.7102 25.2773C14.4855 25.6646 14.1631 25.9861 13.7751 26.2095C13.3872 26.433 12.9473 26.5506 12.4996 26.5506C12.0519 26.5506 11.6121 26.433 11.2241 26.2095C10.8362 25.9861 10.5137 25.6646 10.2891 25.2773" stroke="#17A1FA" stroke-width="2" stroke-linecap="round" stroke-linejoin="round"/>
</svg>
