<svg width="26" height="21" viewBox="0 0 26 21" fill="none" xmlns="http://www.w3.org/2000/svg">
<g clip-path="url(#clip0_1078_9296)">
<path d="M0 2.79984V2.11589C0 1.67386 0.171205 1.24993 0.475951 0.937374C0.780698 0.624814 1.19402 0.449219 1.625 0.449219L24.375 0.449219C24.806 0.449219 25.2193 0.624814 25.524 0.937374C25.8288 1.24993 26 1.67386 26 2.11589V2.79984L13 11.1332L0 2.79984ZM13.4306 12.8228C13.3015 12.9054 13.1523 12.9493 13 12.9493C12.8477 12.9493 12.6985 12.9054 12.5694 12.8228L0 4.76526V18.7826C0 19.2246 0.171205 19.6485 0.475951 19.9611C0.780698 20.2736 1.19402 20.4492 1.625 20.4492H24.375C24.806 20.4492 25.2193 20.2736 25.524 19.9611C25.8288 19.6485 26 19.2246 26 18.7826V4.76526L13.4306 12.8228Z" fill="#232323"/>
</g>
<defs>
<clipPath id="clip0_1078_9296">
<rect width="26" height="20" fill="white" transform="translate(0 0.449219)"/>
</clipPath>
</defs>
</svg>
