<svg width="20" height="22" viewBox="0 0 20 22" fill="none" xmlns="http://www.w3.org/2000/svg">
<path d="M3 21.5508H17C17.7956 21.5508 18.5587 21.2347 19.1213 20.6721C19.6839 20.1095 20 19.3464 20 18.5508V9.55078C20 8.75513 19.6839 7.99207 19.1213 7.42946C18.5587 6.86685 17.7956 6.55078 17 6.55078H15V5.55078C15 4.2247 14.4732 2.95293 13.5355 2.01525C12.5979 1.07757 11.3261 0.550781 10 0.550781C8.67392 0.550781 7.40215 1.07757 6.46447 2.01525C5.52678 2.95293 5 4.2247 5 5.55078V6.55078H3C2.20435 6.55078 1.44129 6.86685 0.87868 7.42946C0.316071 7.99207 0 8.75513 0 9.55078V18.5508C0 19.3464 0.316071 20.1095 0.87868 20.6721C1.44129 21.2347 2.20435 21.5508 3 21.5508ZM7 5.55078C7 4.75513 7.31607 3.99207 7.87868 3.42946C8.44129 2.86685 9.20435 2.55078 10 2.55078C10.7956 2.55078 11.5587 2.86685 12.1213 3.42946C12.6839 3.99207 13 4.75513 13 5.55078V6.55078H7V5.55078ZM2 9.55078C2 9.28556 2.10536 9.03121 2.29289 8.84367C2.48043 8.65614 2.73478 8.55078 3 8.55078H17C17.2652 8.55078 17.5196 8.65614 17.7071 8.84367C17.8946 9.03121 18 9.28556 18 9.55078V18.5508C18 18.816 17.8946 19.0704 17.7071 19.2579C17.5196 19.4454 17.2652 19.5508 17 19.5508H3C2.73478 19.5508 2.48043 19.4454 2.29289 19.2579C2.10536 19.0704 2 18.816 2 18.5508V9.55078Z" fill="#FF7F50"/>
<path d="M10 16.0508C11.1046 16.0508 12 15.1554 12 14.0508C12 12.9462 11.1046 12.0508 10 12.0508C8.89543 12.0508 8 12.9462 8 14.0508C8 15.1554 8.89543 16.0508 10 16.0508Z" fill="#FF7F50"/>
</svg>
