<svg width="8" height="14" viewBox="0 0 8 14" fill="none" xmlns="http://www.w3.org/2000/svg">
<path d="M0.305487 13.6943C0.501598 13.89 0.767381 14 1.04449 14C1.32159 14 1.58738 13.89 1.78349 13.6943L7.69349 7.79027C7.92149 7.56227 8.02349 7.25427 7.99549 6.95627C7.99549 6.68627 7.89449 6.41727 7.68949 6.21227L1.78249 0.305266C1.68551 0.208285 1.57037 0.131355 1.44366 0.0788698C1.31695 0.0263843 1.18114 -0.00063043 1.04399 -0.000630424C0.906835 -0.000630418 0.771025 0.0263843 0.644313 0.0788698C0.517601 0.131355 0.402467 0.208285 0.305486 0.305266C0.208505 0.402247 0.131575 0.517382 0.0790895 0.644094C0.0266037 0.770805 -0.000410655 0.906615 -0.000410646 1.04377C-0.000410638 1.18092 0.0266037 1.31673 0.0790896 1.44344C0.131575 1.57015 0.208505 1.68529 0.305486 1.78227L5.52549 7.00227L0.305487 12.2183C0.208489 12.3151 0.131539 12.4302 0.0790366 12.5568C0.0265347 12.6834 -0.000488333 12.8192 -0.000488327 12.9563C-0.000488321 13.0934 0.0265347 13.2291 0.0790367 13.3557C0.131539 13.4824 0.208489 13.5974 0.305487 13.6943Z" fill="black"/>
</svg>
