<svg width="8" height="14" viewBox="0 0 8 14" fill="none" xmlns="http://www.w3.org/2000/svg">
<path d="M7.69451 13.6943C7.4984 13.89 7.23262 14 6.95551 14C6.67841 14 6.41262 13.89 6.21651 13.6943L0.306513 7.79027C0.078513 7.56227 -0.0234868 7.25427 0.00451309 6.95627C0.00451311 6.68627 0.105514 6.41727 0.310514 6.21227L6.21751 0.305266C6.31449 0.208285 6.42963 0.131355 6.55634 0.0788698C6.68305 0.0263843 6.81886 -0.00063043 6.95601 -0.000630424C7.09317 -0.000630418 7.22897 0.0263843 7.35569 0.0788698C7.4824 0.131355 7.59753 0.208285 7.69451 0.305266C7.7915 0.402247 7.86842 0.517382 7.92091 0.644094C7.9734 0.770805 8.00041 0.906615 8.00041 1.04377C8.00041 1.18092 7.9734 1.31673 7.92091 1.44344C7.86842 1.57015 7.7915 1.68529 7.69451 1.78227L2.47451 7.00227L7.69451 12.2183C7.79151 12.3151 7.86846 12.4302 7.92096 12.5568C7.97347 12.6834 8.00049 12.8192 8.00049 12.9563C8.00049 13.0934 7.97347 13.2291 7.92096 13.3557C7.86846 13.4824 7.79151 13.5974 7.69451 13.6943Z" fill="#AFAFAF"/>
</svg>
